<svg version="1.1" id="Layer_1" xmlns="http://www.w3.org/2000/svg" xmlns:xlink="http://www.w3.org/1999/xlink" x="0px" y="0px"
	 width="100%" viewBox="0 0 512 512" enable-background="new 0 0 512 512" xml:space="preserve">
<path fill="#2A7AE4" opacity="1.000000" stroke="none" 
	d="
M354.000000,513.000000 
	C236.028671,513.000000 118.557327,513.000000 1.042998,513.000000 
	C1.042998,342.403656 1.042998,171.807281 1.042998,1.105453 
	C171.554672,1.105453 342.109436,1.105453 512.832092,1.105453 
	C512.832092,171.666534 512.832092,342.333252 512.832092,513.000000 
	C460.140533,513.000000 407.320282,513.000000 354.000000,513.000000 
M321.561981,418.101257 
	C353.106750,404.803101 367.757233,381.081421 367.475616,346.826263 
	C366.968842,285.179535 367.347595,223.525635 367.298950,161.874786 
	C367.295685,157.722931 367.221558,153.497131 366.485046,149.431686 
	C360.997345,119.139580 342.134979,100.617180 313.814545,91.047684 
	C291.538300,83.520523 268.414124,82.741165 245.141693,83.826370 
	C224.241852,84.800926 204.166992,88.920616 185.661896,99.080132 
	C166.788483,109.441856 154.278152,124.777237 150.602081,146.289764 
	C149.293930,153.945145 149.409073,161.863647 149.146881,169.671204 
	C148.953644,175.425278 150.012527,176.393555 155.743439,176.416885 
	C169.073135,176.471176 182.403229,176.448120 195.733139,176.432755 
	C202.767014,176.424637 202.906708,176.096527 204.039948,168.911530 
	C206.219498,155.092560 211.545517,142.479248 225.278336,137.215942 
	C248.034836,128.494171 271.359375,128.309433 293.767944,138.796982 
	C307.145630,145.057938 313.783142,156.398956 313.616272,171.404160 
	C313.581055,174.569626 313.616669,177.735825 313.610718,180.901672 
	C313.579926,197.205414 303.699493,211.298080 288.222412,216.767365 
	C259.014618,227.088867 229.845428,237.528168 200.517807,247.499710 
	C170.269852,257.784149 153.987808,279.403381 150.038345,310.238098 
	C148.293304,323.862000 149.009216,337.845459 149.165878,351.659363 
	C149.488922,380.142273 161.942245,401.312927 187.550018,414.614166 
	C205.712738,424.048279 225.110321,428.007355 245.295853,428.751831 
	C271.064789,429.702301 296.651245,428.983215 321.561981,418.101257 
z"/>
<path fill="#FEFEFF" opacity="1.000000" stroke="none" 
	d="
M321.211334,418.249573 
	C296.651245,428.983215 271.064789,429.702301 245.295853,428.751831 
	C225.110321,428.007355 205.712738,424.048279 187.550018,414.614166 
	C161.942245,401.312927 149.488922,380.142273 149.165878,351.659363 
	C149.009216,337.845459 148.293304,323.862000 150.038345,310.238098 
	C153.987808,279.403381 170.269852,257.784149 200.517807,247.499710 
	C229.845428,237.528168 259.014618,227.088867 288.222412,216.767365 
	C303.699493,211.298080 313.579926,197.205414 313.610718,180.901672 
	C313.616669,177.735825 313.581055,174.569626 313.616272,171.404160 
	C313.783142,156.398956 307.145630,145.057938 293.767944,138.796982 
	C271.359375,128.309433 248.034836,128.494171 225.278336,137.215942 
	C211.545517,142.479248 206.219498,155.092560 204.039948,168.911530 
	C202.906708,176.096527 202.767014,176.424637 195.733139,176.432755 
	C182.403229,176.448120 169.073135,176.471176 155.743439,176.416885 
	C150.012527,176.393555 148.953644,175.425278 149.146881,169.671204 
	C149.409073,161.863647 149.293930,153.945145 150.602081,146.289764 
	C154.278152,124.777237 166.788483,109.441856 185.661896,99.080132 
	C204.166992,88.920616 224.241852,84.800926 245.141693,83.826370 
	C268.414124,82.741165 291.538300,83.520523 313.814545,91.047684 
	C342.134979,100.617180 360.997345,119.139580 366.485046,149.431686 
	C367.221558,153.497131 367.295685,157.722931 367.298950,161.874786 
	C367.347595,223.525635 366.968842,285.179535 367.475616,346.826263 
	C367.757233,381.081421 353.106750,404.803101 321.211334,418.249573 
M313.523956,317.499573 
	C313.523956,297.515656 313.523956,277.531738 313.523956,258.736969 
	C308.183533,261.786591 303.266815,265.530457 297.724304,267.591095 
	C277.764557,275.011902 257.539520,281.715240 237.516388,288.970306 
	C211.975739,298.224548 200.746826,316.912354 204.223358,343.762329 
	C206.787735,363.567474 215.864380,374.493561 233.987396,378.537140 
	C250.110336,382.134460 266.370819,381.943542 282.551880,378.552185 
	C299.100403,375.083801 308.985016,364.603302 311.772308,348.315918 
	C313.441406,338.562744 313.010712,328.450165 313.523956,317.499573 
z"/>
<path fill="#2C7BE4" opacity="1.000000" stroke="none" 
	d="
M313.523895,317.999359 
	C313.010712,328.450165 313.441406,338.562744 311.772308,348.315918 
	C308.985016,364.603302 299.100403,375.083801 282.551880,378.552185 
	C266.370819,381.943542 250.110336,382.134460 233.987396,378.537140 
	C215.864380,374.493561 206.787735,363.567474 204.223358,343.762329 
	C200.746826,316.912354 211.975739,298.224548 237.516388,288.970306 
	C257.539520,281.715240 277.764557,275.011902 297.724304,267.591095 
	C303.266815,265.530457 308.183533,261.786591 313.523956,258.736969 
	C313.523956,277.531738 313.523956,297.515656 313.523895,317.999359 
z"/>
</svg>