<?xml version="1.0" standalone="no"?>
<!DOCTYPE svg PUBLIC "-//W3C//DTD SVG 20010904//EN"
 "http://www.w3.org/TR/2001/REC-SVG-20010904/DTD/svg10.dtd">
<svg version="1.0" xmlns="http://www.w3.org/2000/svg"
 width="1080.000000pt" height="1379.000000pt" viewBox="0 0 1080.000000 1379.000000"
 preserveAspectRatio="xMidYMid meet">
<metadata>
Created by potrace 1.16, written by Peter Selinger 2001-2019
</metadata>
<g transform="translate(0.000000,1379.000000) scale(0.100000,-0.100000)"
fill="#000000" stroke="none">
<path d="M5289 13570 c-240 -22 -490 -119 -690 -266 -144 -106 -306 -300 -389
-463 -148 -295 -176 -695 -70 -1011 33 -99 93 -221 156 -317 109 -169 330
-364 524 -463 146 -75 195 -145 188 -271 -7 -121 58 -99 -800 -270 -936 -186
-917 -182 -1007 -226 -120 -59 -176 -121 -468 -516 -147 -199 -354 -478 -460
-619 -230 -308 -233 -318 -161 -431 24 -37 29 -54 24 -79 -3 -17 -68 -130
-143 -252 -263 -425 -366 -600 -391 -665 -33 -88 -42 -246 -18 -341 26 -105
81 -204 150 -274 69 -69 123 -101 696 -411 201 -109 373 -205 383 -213 29 -26
129 24 -873 -432 -1320 -600 -1283 -581 -1410 -709 -78 -78 -105 -113 -142
-186 -58 -114 -84 -198 -97 -319 -47 -415 218 -805 614 -906 114 -29 221 -38
545 -45 157 -3 638 -14 1070 -25 432 -11 1160 -29 1619 -40 923 -22 871 -17
871 -85 0 -27 -5 -34 -26 -39 -14 -4 -65 -24 -113 -46 -117 -53 -151 -57 -225
-29 -53 19 -71 21 -170 15 -597 -35 -1007 -56 -1082 -56 -58 0 -119 7 -169 20
-43 11 -96 20 -117 20 -111 0 -188 -95 -175 -214 3 -28 161 -654 350 -1391
189 -737 373 -1452 408 -1589 68 -268 82 -300 140 -308 89 -13 237 41 271 98
13 22 48 51 100 81 144 85 207 183 238 371 18 101 166 1255 210 1632 11 96 25
189 31 207 15 45 60 80 115 89 72 10 105 46 113 119 l6 60 125 42 c69 22 140
43 159 45 32 3 33 2 51 -54 10 -32 21 -73 24 -91 9 -46 40 -77 77 -77 16 0
345 90 730 200 386 110 716 200 734 200 25 0 38 -7 52 -28 11 -15 93 -214 182
-442 200 -508 232 -578 303 -648 59 -59 166 -117 240 -131 33 -6 60 -20 88
-44 22 -20 51 -39 66 -43 38 -10 206 1 232 15 48 25 47 8 52 848 l5 793 25 24
c20 20 117 51 510 161 998 281 1430 405 1489 429 214 87 394 305 462 561 33
123 31 310 -5 428 -63 210 -179 367 -357 483 -58 38 -472 230 -1809 839 -272
124 -355 166 -355 179 0 13 91 68 335 202 184 102 402 219 484 262 176 91 260
157 331 262 72 106 100 197 99 325 0 111 -17 181 -65 277 -32 62 -318 540
-406 676 -105 164 -111 189 -62 267 44 69 48 115 17 163 -14 21 -180 245 -369
497 -188 253 -393 528 -455 611 -62 83 -134 170 -161 193 -67 59 -155 106
-243 130 -41 11 -428 90 -860 176 -432 87 -793 161 -802 166 -20 11 -38 68
-38 120 0 107 62 196 181 258 269 141 486 355 608 599 45 89 97 251 116 357
21 117 21 361 0 477 -38 220 -119 401 -261 584 -269 347 -720 544 -1155 504z
m513 -1273 c70 -34 138 -100 170 -164 20 -43 23 -65 26 -198 l3 -151 79 1 c88
0 119 -15 153 -74 40 -66 17 -132 -59 -177 -49 -29 -64 -25 -64 16 0 27 5 32
90 97 10 8 -26 23 -56 23 -21 0 -40 -10 -63 -34 -32 -33 -34 -39 -47 -164 -7
-71 -21 -152 -30 -178 -53 -159 -162 -290 -300 -361 -113 -57 -160 -68 -299
-67 -102 0 -132 4 -201 27 -140 47 -259 142 -336 268 -55 91 -78 168 -88 302
-11 130 -24 168 -73 197 -33 20 -107 28 -107 11 0 -5 25 -31 55 -56 43 -37 55
-54 55 -76 0 -35 -15 -37 -70 -9 -66 34 -93 96 -70 164 17 53 62 74 192 91
l47 6 0 117 c0 173 35 268 128 346 80 67 132 75 503 73 l305 -2 57 -28z m-468
-1597 c117 -14 245 5 350 50 l44 18 6 -21 c21 -79 -4 -117 -111 -168 -87 -41
-88 -42 -203 -42 -129 0 -206 19 -292 74 -51 33 -58 44 -58 94 0 64 3 65 95
33 47 -16 123 -33 169 -38z m-234 -145 c117 -59 214 -85 313 -85 121 0 196 24
347 110 19 11 44 20 55 20 11 0 340 -65 730 -144 391 -80 753 -152 805 -161
181 -30 262 -68 373 -173 35 -34 224 -280 466 -607 480 -649 456 -614 445
-624 -5 -5 -52 -13 -104 -19 -349 -42 -632 -212 -911 -549 -99 -120 -141 -163
-157 -163 -8 0 -48 72 -94 168 -45 92 -98 194 -119 228 -88 139 -115 269 -106
497 13 312 38 462 114 681 47 134 61 200 46 209 -4 2 -18 1 -30 -4 -40 -15
-136 -350 -174 -602 -17 -117 -19 -190 -19 -633 0 -533 -2 -558 -47 -575 -15
-5 -678 -9 -1661 -9 -1466 0 -1640 2 -1660 16 l-22 15 0 452 c-1 676 -14 846
-91 1146 -41 163 -59 204 -87 199 -27 -5 -25 -38 12 -159 19 -63 43 -168 54
-234 46 -267 54 -756 17 -904 -12 -46 -61 -158 -131 -298 l-112 -225 -42 57
c-184 250 -423 465 -630 570 -135 68 -343 125 -456 125 -30 0 -44 4 -44 13 0
16 58 99 284 404 93 125 257 347 365 493 108 146 225 294 261 330 64 64 146
115 224 140 45 15 1640 337 1674 339 12 1 63 -19 112 -44z m3398 -1772 c11
-10 85 -126 165 -258 79 -132 213 -352 297 -489 200 -327 220 -372 220 -516 0
-136 -56 -277 -144 -366 -52 -51 -170 -119 -951 -546 l-290 -159 -5 78 c-3 43
-12 90 -19 105 -13 25 -12 30 19 64 72 82 76 151 15 240 -26 38 -36 61 -32 76
3 13 11 42 17 66 22 90 -24 165 -120 197 -28 9 -55 25 -61 36 -18 34 -22 116
-9 163 18 65 64 107 177 160 54 26 189 99 301 163 152 87 202 120 202 134 0
48 -42 34 -253 -83 -79 -43 -115 -58 -132 -54 -29 7 -265 390 -265 431 0 19
34 59 148 173 205 206 339 294 555 367 117 40 137 42 165 18z m-5985 -27 c180
-62 343 -173 524 -358 141 -144 149 -167 93 -278 -31 -62 -180 -312 -196 -329
-14 -15 -12 -16 -189 79 -110 59 -146 77 -173 85 -21 6 -23 4 -20 -21 4 -37
22 -49 338 -219 140 -76 267 -150 283 -164 36 -33 50 -87 41 -162 -9 -76 -31
-103 -103 -127 -76 -24 -96 -54 -95 -140 0 -37 4 -83 8 -102 7 -30 4 -40 -23
-74 -64 -80 -63 -152 5 -240 l36 -47 -16 -46 c-9 -26 -16 -71 -16 -101 0 -47
-2 -53 -17 -48 -32 13 -1058 579 -1108 612 -68 45 -147 127 -189 197 -36 61
-66 167 -66 234 0 62 27 172 59 239 16 34 146 253 288 486 143 233 272 444
287 471 57 98 96 106 249 53z m4866 -617 c1 -4 -42 -9 -94 -13 -144 -11 -135
-26 -135 228 0 117 3 216 8 220 6 7 220 -414 221 -435z m-3780 -5 c-8 -10 -35
-14 -85 -14 -62 0 -74 3 -74 16 0 17 90 202 138 283 l27 46 3 -159 c2 -108 -1
-163 -9 -172z m3757 -90 c19 -9 37 -20 40 -25 3 -5 -848 -9 -1993 -9 l-1998 1
28 24 28 25 1931 0 c1759 0 1933 -1 1964 -16z m-4078 -35 c38 -13 40 -22 44
-197 l2 -142 -30 -31 c-17 -16 -39 -31 -50 -31 -29 -3 -233 112 -240 134 -7
25 131 257 161 268 29 12 77 12 113 -1z m4394 -17 c9 -9 46 -66 82 -126 50
-83 63 -112 56 -126 -10 -19 -220 -140 -243 -140 -9 0 -27 14 -41 31 l-26 31
6 151 c4 101 11 159 20 174 22 36 112 39 146 5z m-4333 -469 c17 -67 23 -190
11 -212 -14 -28 -56 -28 -71 0 -14 28 -8 195 9 227 19 33 40 27 51 -15z m298
-316 c18 -10 37 -26 43 -36 17 -32 12 -96 -10 -124 -29 -37 -144 -52 -347 -44
-213 8 -243 20 -243 101 0 44 15 78 43 96 48 32 457 37 514 7z m4035 -4 c33
-16 58 -60 58 -101 0 -42 -55 -89 -113 -97 -25 -4 -127 -5 -228 -3 -202 3
-248 15 -278 69 -30 54 15 123 94 144 67 18 427 9 467 -12z m-3982 -288 c38
-20 60 -52 60 -90 0 -42 -25 -74 -74 -96 -36 -16 -68 -19 -281 -19 -133 0
-256 5 -277 10 -107 30 -133 137 -45 190 30 19 52 20 310 20 227 0 283 -3 307
-15z m4039 0 c74 -38 57 -164 -26 -196 -33 -12 -518 -12 -565 1 -103 29 -118
155 -24 196 47 20 576 20 615 -1z m-4070 -299 c58 -56 49 -123 -22 -166 -29
-18 -52 -20 -250 -20 -233 0 -258 4 -291 52 -19 26 -21 77 -5 112 24 51 53 56
306 54 l232 -3 30 -29z m4001 19 c38 -19 70 -62 70 -92 0 -37 -27 -81 -60 -98
-41 -21 -444 -22 -494 -1 -42 18 -66 51 -66 94 0 44 14 69 53 92 29 18 52 20
250 20 173 0 224 -3 247 -15z m-4640 -264 l55 -29 6 -82 c11 -140 50 -171 233
-180 67 -4 129 -10 138 -14 22 -10 36 -59 43 -157 8 -91 27 -135 74 -166 l34
-23 1818 2 1818 3 28 21 c43 31 62 81 72 187 8 78 21 131 34 138 1 1 56 4 123
8 112 6 123 8 157 34 45 34 65 72 73 134 11 89 85 163 163 163 54 0 2151 -965
2263 -1041 329 -224 432 -677 230 -1017 -82 -138 -242 -277 -382 -332 -30 -12
-644 -188 -1365 -391 -720 -204 -1737 -491 -2260 -639 -522 -148 -964 -272
-982 -276 -26 -5 -34 -2 -46 17 -8 13 -77 265 -151 559 -75 294 -139 542 -142
551 -2 9 4 26 13 37 13 15 269 111 868 326 2510 898 2810 1007 2827 1027 10
12 18 26 18 31 0 23 -155 -24 -514 -154 -121 -43 -223 -75 -228 -70 -4 4 -10
43 -11 85 -5 120 -44 155 -173 156 -77 1 -151 -21 -198 -58 -23 -18 -58 -34
-89 -39 -29 -6 -186 -36 -349 -67 -239 -46 -310 -57 -360 -52 -52 4 -177 50
-708 263 l-645 259 -100 0 c-95 0 -105 -2 -205 -44 -58 -23 -234 -94 -391
-157 -285 -114 -286 -114 -370 -114 -47 0 -289 20 -539 45 -250 24 -795 76
-1210 115 -415 38 -773 73 -795 76 -27 3 -46 0 -60 -10 -19 -14 -19 -15 10
-26 98 -37 857 -124 1445 -165 173 -12 2010 -183 2413 -225 54 -5 102 -10 107
-10 6 0 19 -9 30 -20 19 -19 20 -33 20 -389 0 -203 -4 -381 -9 -394 -10 -26
-60 -50 -128 -62 l-43 -7 0 389 -1 388 -29 -33 -30 -32 0 -354 0 -354 -25 -31
c-17 -20 -48 -37 -93 -52 -37 -12 -163 -57 -280 -100 -172 -63 -217 -83 -237
-107 -14 -17 -38 -33 -54 -37 -15 -3 -246 -1 -512 5 -266 5 -799 17 -1184 25
-385 8 -869 20 -1075 26 -206 5 -532 14 -725 19 -375 9 -472 20 -591 65 -288
109 -494 410 -494 724 0 123 20 202 83 331 45 93 62 116 146 200 64 64 122
111 176 142 137 79 467 240 770 376 160 71 387 175 505 230 118 55 307 141
419 191 112 51 240 111 285 133 154 77 186 81 286 29z m604 -25 c38 -16 76
-60 76 -88 0 -38 -31 -79 -73 -99 -36 -16 -67 -19 -210 -19 -181 0 -221 8
-251 51 -9 13 -16 43 -16 67 0 33 6 48 26 67 34 31 40 32 242 34 127 1 181 -3
206 -13z m3958 4 c72 -20 101 -98 57 -154 -40 -51 -63 -56 -251 -56 -148 0
-179 3 -215 19 -47 22 -63 45 -63 91 0 42 15 67 53 90 28 18 51 20 207 20 96
0 192 -5 212 -10z m-1507 -1064 c324 -130 601 -244 615 -253 25 -17 21 -18
-155 -53 -146 -30 -189 -42 -228 -67 -26 -17 -64 -34 -84 -38 -37 -7 -254 20
-283 34 -11 6 -16 32 -20 99 -4 66 -10 96 -22 108 -13 13 -121 26 -600 69
-321 28 -593 57 -603 62 -17 10 -17 11 3 22 12 6 157 65 324 130 167 65 310
121 318 124 8 4 44 5 80 3 57 -4 139 -34 655 -240z m1569 -172 c3 -9 6 -60 6
-115 0 -91 -2 -100 -22 -113 -26 -16 -893 -326 -914 -326 -7 0 -25 19 -41 42
-47 69 -70 81 -181 88 -54 4 -108 12 -120 19 -12 6 -27 29 -33 50 -10 33 -9
45 7 78 18 36 24 39 94 57 68 17 1159 233 1186 235 7 1 15 -6 18 -15z m-1414
-317 c15 -8 31 -30 41 -61 31 -86 50 -96 188 -100 84 -2 118 -16 146 -60 18
-26 13 -46 -14 -63 -22 -14 -632 -233 -648 -233 -24 0 -20 48 11 154 118 399
106 376 194 376 31 0 68 -6 82 -13z m-1607 -1258 c21 -23 27 -39 27 -74 0 -53
-8 -60 -130 -106 -52 -20 -97 -45 -117 -65 -30 -29 -33 -38 -33 -90 0 -71 43
-253 74 -314 44 -88 125 -110 271 -75 56 14 62 13 85 -4 14 -10 31 -35 38 -57
11 -34 11 -41 -6 -64 -14 -18 -32 -27 -64 -31 -84 -12 -127 -47 -148 -119 -5
-17 -16 -98 -25 -178 -9 -81 -45 -367 -80 -637 -36 -269 -83 -627 -104 -795
-49 -378 -65 -428 -170 -523 -66 -59 -118 -84 -137 -66 -7 8 -96 340 -198 739
-158 619 -525 2054 -587 2289 -26 100 -25 127 4 135 20 6 369 27 972 60 132 7
254 11 270 8 17 -2 42 -17 58 -33z m279 29 c22 -18 185 -279 229 -368 60 -123
87 -225 67 -253 -13 -17 -258 -97 -298 -97 -11 0 -38 10 -61 22 -40 20 -46 21
-113 9 -143 -26 -159 -26 -193 3 -33 28 -59 91 -88 216 -32 140 -13 172 129
215 120 37 138 54 145 141 l6 69 65 27 c75 31 90 33 112 16z m2742 -314 c3 -9
6 -321 6 -693 0 -644 -1 -679 -18 -694 -17 -15 -23 -16 -69 -2 -68 20 -162 83
-196 132 -33 47 -49 84 -269 626 -93 231 -167 425 -164 433 7 19 83 53 117 54
14 0 33 -8 42 -18 9 -10 57 -121 107 -247 50 -126 96 -235 102 -242 13 -17 45
-17 51 0 5 15 -12 65 -107 305 -42 107 -76 202 -76 212 0 23 31 35 255 99 188
55 210 58 219 35z"/>
<path d="M5013 11995 c-28 -20 -30 -56 -5 -78 41 -37 222 -6 222 37 0 42 -172
74 -217 41z"/>
<path d="M5576 11994 c-24 -24 -20 -61 9 -80 20 -13 42 -16 105 -12 88 5 110
17 110 59 0 39 -28 49 -130 49 -58 0 -83 -4 -94 -16z"/>
<path d="M5396 11854 c-12 -33 -5 -89 34 -250 22 -92 40 -168 40 -169 0 -2 -7
-11 -16 -19 -10 -11 -33 -16 -67 -16 -50 0 -97 -19 -97 -40 0 -15 100 -33 148
-26 69 9 92 28 92 76 0 80 -69 360 -106 432 -17 32 -20 34 -28 12z"/>
<path d="M5022 11840 c-54 -11 -107 -41 -107 -61 0 -11 13 -14 61 -12 57 2 61
1 78 -27 24 -41 56 -47 110 -20 35 16 49 19 65 11 28 -16 61 -13 61 4 0 24
-59 83 -93 94 -51 15 -128 20 -175 11z"/>
<path d="M5657 11840 c-81 -21 -137 -65 -137 -110 0 -16 52 -11 71 6 16 15 20
14 52 -10 44 -34 81 -33 112 0 14 15 25 31 25 36 0 5 19 6 44 3 47 -7 86 0 86
16 0 18 -108 60 -162 64 -29 2 -70 0 -91 -5z"/>
<path d="M5345 11230 c-125 -5 -165 -13 -165 -31 0 -12 61 -56 103 -74 44 -18
182 -20 240 -3 52 16 129 86 107 97 -24 13 -144 17 -285 11z"/>
<path d="M4960 10524 c0 -22 48 -77 93 -108 152 -104 414 -124 618 -47 67 25
143 89 157 131 14 37 2 39 -41 6 -104 -80 -256 -120 -427 -114 -127 5 -187 23
-321 99 -70 40 -79 44 -79 33z"/>
<path d="M5256 3758 c8 -40 30 -134 49 -208 19 -74 62 -243 96 -375 33 -132
70 -260 82 -285 l21 -45 4 48 c10 151 -205 937 -256 937 -6 0 -4 -30 4 -72z"/>
<path d="M4380 2560 c0 -6 -40 -316 -90 -688 -49 -373 -90 -690 -90 -705 0
-32 37 -58 51 -36 5 8 9 21 9 29 1 8 41 312 89 675 86 637 88 661 72 694 -16
34 -41 53 -41 31z"/>
</g>
</svg>
