<?xml version="1.0"?>
<svg width="1860" height="1379" xmlns="http://www.w3.org/2000/svg" xmlns:svg="http://www.w3.org/2000/svg" preserveAspectRatio="xMidYMid meet" version="1.0">
 <metadata>Created by potrace 1.16, written by Peter Selinger 2001-2019</metadata>
 <g class="layer">
  <title>Layer 1</title>
  <g fill="#000000" id="svg_1" transform="matrix(0.1 0 0 -0.1 346 1383)">
   <path d="m6629,13600c-240,-22 -490,-119 -690,-266c-144,-106 -306,-300 -389,-463c-148,-295 -176,-695 -70,-1011c33,-99 93,-221 156,-317c109,-169 330,-364 524,-463c146,-75 195,-145 188,-271c-7,-121 58,-99 -800,-270c-936,-186 -917,-182 -1007,-226c-120,-59 -176,-121 -468,-516c-147,-199 -354,-478 -460,-619c-230,-308 -233,-318 -161,-431c24,-37 29,-54 24,-79c-3,-17 -68,-130 -143,-252c-263,-425 -366,-600 -391,-665c-33,-88 -42,-246 -18,-341c26,-105 81,-204 150,-274c69,-69 123,-101 696,-411c201,-109 373,-205 383,-213c29,-26 129,24 -873,-432c-1320,-600 -1283,-581 -1410,-709c-78,-78 -105,-113 -142,-186c-58,-114 -84,-198 -97,-319c-47,-415 218,-805 614,-906c114,-29 221,-38 545,-45c157,-3 638,-14 1070,-25c432,-11 1160,-29 1619,-40c923,-22 871,-17 871,-85c0,-27 -5,-34 -26,-39c-14,-4 -65,-24 -113,-46c-117,-53 -151,-57 -225,-29c-53,19 -71,21 -170,15c-597,-35 -1007,-56 -1082,-56c-58,0 -119,7 -169,20c-43,11 -96,20 -117,20c-111,0 -188,-95 -175,-214c3,-28 161,-654 350,-1391c189,-737 373,-1452 408,-1589c68,-268 82,-300 140,-308c89,-13 237,41 271,98c13,22 48,51 100,81c144,85 207,183 238,371c18,101 166,1255 210,1632c11,96 25,189 31,207c15,45 60,80 115,89c72,10 105,46 113,119l6,60l125,42c69,22 140,43 159,45c32,3 33,2 51,-54c10,-32 21,-73 24,-91c9,-46 40,-77 77,-77c16,0 345,90 730,200c386,110 716,200 734,200c25,0 38,-7 52,-28c11,-15 93,-214 182,-442c200,-508 232,-578 303,-648c59,-59 166,-117 240,-131c33,-6 60,-20 88,-44c22,-20 51,-39 66,-43c38,-10 206,1 232,15c48,25 47,8 52,848l5,793l25,24c20,20 117,51 510,161c998,281 1430,405 1489,429c214,87 394,305 462,561c33,123 31,310 -5,428c-63,210 -179,367 -357,483c-58,38 -472,230 -1809,839c-272,124 -355,166 -355,179c0,13 91,68 335,202c184,102 402,219 484,262c176,91 260,157 331,262c72,106 100,197 99,325c0,111 -17,181 -65,277c-32,62 -318,540 -406,676c-105,164 -111,189 -62,267c44,69 48,115 17,163c-14,21 -180,245 -369,497c-188,253 -393,528 -455,611c-62,83 -134,170 -161,193c-67,59 -155,106 -243,130c-41,11 -428,90 -860,176c-432,87 -793,161 -802,166c-20,11 -38,68 -38,120c0,107 62,196 181,258c269,141 486,355 608,599c45,89 97,251 116,357c21,117 21,361 0,477c-38,220 -119,401 -261,584c-269,347 -720,544 -1155,504zm513,-1273c70,-34 138,-100 170,-164c20,-43 23,-65 26,-198l3,-151l79,1c88,0 119,-15 153,-74c40,-66 17,-132 -59,-177c-49,-29 -64,-25 -64,16c0,27 5,32 90,97c10,8 -26,23 -56,23c-21,0 -40,-10 -63,-34c-32,-33 -34,-39 -47,-164c-7,-71 -21,-152 -30,-178c-53,-159 -162,-290 -300,-361c-113,-57 -160,-68 -299,-67c-102,0 -132,4 -201,27c-140,47 -259,142 -336,268c-55,91 -78,168 -88,302c-11,130 -24,168 -73,197c-33,20 -107,28 -107,11c0,-5 25,-31 55,-56c43,-37 55,-54 55,-76c0,-35 -15,-37 -70,-9c-66,34 -93,96 -70,164c17,53 62,74 192,91l47,6l0,117c0,173 35,268 128,346c80,67 132,75 503,73l305,-2l57,-28zm-468,-1597c117,-14 245,5 350,50l44,18l6,-21c21,-79 -4,-117 -111,-168c-87,-41 -88,-42 -203,-42c-129,0 -206,19 -292,74c-51,33 -58,44 -58,94c0,64 3,65 95,33c47,-16 123,-33 169,-38zm-234,-145c117,-59 214,-85 313,-85c121,0 196,24 347,110c19,11 44,20 55,20c11,0 340,-65 730,-144c391,-80 753,-152 805,-161c181,-30 262,-68 373,-173c35,-34 224,-280 466,-607c480,-649 456,-614 445,-624c-5,-5 -52,-13 -104,-19c-349,-42 -632,-212 -911,-549c-99,-120 -141,-163 -157,-163c-8,0 -48,72 -94,168c-45,92 -98,194 -119,228c-88,139 -115,269 -106,497c13,312 38,462 114,681c47,134 61,200 46,209c-4,2 -18,1 -30,-4c-40,-15 -136,-350 -174,-602c-17,-117 -19,-190 -19,-633c0,-533 -2,-558 -47,-575c-15,-5 -678,-9 -1661,-9c-1466,0 -1640,2 -1660,16l-22,15l0,452c-1,676 -14,846 -91,1146c-41,163 -59,204 -87,199c-27,-5 -25,-38 12,-159c19,-63 43,-168 54,-234c46,-267 54,-756 17,-904c-12,-46 -61,-158 -131,-298l-112,-225l-42,57c-184,250 -423,465 -630,570c-135,68 -343,125 -456,125c-30,0 -44,4 -44,13c0,16 58,99 284,404c93,125 257,347 365,493c108,146 225,294 261,330c64,64 146,115 224,140c45,15 1640,337 1674,339c12,1 63,-19 112,-44zm3398,-1772c11,-10 85,-126 165,-258c79,-132 213,-352 297,-489c200,-327 220,-372 220,-516c0,-136 -56,-277 -144,-366c-52,-51 -170,-119 -951,-546l-290,-159l-5,78c-3,43 -12,90 -19,105c-13,25 -12,30 19,64c72,82 76,151 15,240c-26,38 -36,61 -32,76c3,13 11,42 17,66c22,90 -24,165 -120,197c-28,9 -55,25 -61,36c-18,34 -22,116 -9,163c18,65 64,107 177,160c54,26 189,99 301,163c152,87 202,120 202,134c0,48 -42,34 -253,-83c-79,-43 -115,-58 -132,-54c-29,7 -265,390 -265,431c0,19 34,59 148,173c205,206 339,294 555,367c117,40 137,42 165,18zm-5985,-27c180,-62 343,-173 524,-358c141,-144 149,-167 93,-278c-31,-62 -180,-312 -196,-329c-14,-15 -12,-16 -189,79c-110,59 -146,77 -173,85c-21,6 -23,4 -20,-21c4,-37 22,-49 338,-219c140,-76 267,-150 283,-164c36,-33 50,-87 41,-162c-9,-76 -31,-103 -103,-127c-76,-24 -96,-54 -95,-140c0,-37 4,-83 8,-102c7,-30 4,-40 -23,-74c-64,-80 -63,-152 5,-240l36,-47l-16,-46c-9,-26 -16,-71 -16,-101c0,-47 -2,-53 -17,-48c-32,13 -1058,579 -1108,612c-68,45 -147,127 -189,197c-36,61 -66,167 -66,234c0,62 27,172 59,239c16,34 146,253 288,486c143,233 272,444 287,471c57,98 96,106 249,53zm4866,-617c1,-4 -42,-9 -94,-13c-144,-11 -135,-26 -135,228c0,117 3,216 8,220c6,7 220,-414 221,-435zm-3780,-5c-8,-10 -35,-14 -85,-14c-62,0 -74,3 -74,16c0,17 90,202 138,283l27,46l3,-159c2,-108 -1,-163 -9,-172zm3757,-90c19,-9 37,-20 40,-25c3,-5 -848,-9 -1993,-9l-1998,1l28,24l28,25l1931,0c1759,0 1933,-1 1964,-16zm-4078,-35c38,-13 40,-22 44,-197l2,-142l-30,-31c-17,-16 -39,-31 -50,-31c-29,-3 -233,112 -240,134c-7,25 131,257 161,268c29,12 77,12 113,-1zm4394,-17c9,-9 46,-66 82,-126c50,-83 63,-112 56,-126c-10,-19 -220,-140 -243,-140c-9,0 -27,14 -41,31l-26,31l6,151c4,101 11,159 20,174c22,36 112,39 146,5zm-4333,-469c17,-67 23,-190 11,-212c-14,-28 -56,-28 -71,0c-14,28 -8,195 9,227c19,33 40,27 51,-15zm298,-316c18,-10 37,-26 43,-36c17,-32 12,-96 -10,-124c-29,-37 -144,-52 -347,-44c-213,8 -243,20 -243,101c0,44 15,78 43,96c48,32 457,37 514,7zm4035,-4c33,-16 58,-60 58,-101c0,-42 -55,-89 -113,-97c-25,-4 -127,-5 -228,-3c-202,3 -248,15 -278,69c-30,54 15,123 94,144c67,18 427,9 467,-12zm-3982,-288c38,-20 60,-52 60,-90c0,-42 -25,-74 -74,-96c-36,-16 -68,-19 -281,-19c-133,0 -256,5 -277,10c-107,30 -133,137 -45,190c30,19 52,20 310,20c227,0 283,-3 307,-15zm4039,0c74,-38 57,-164 -26,-196c-33,-12 -518,-12 -565,1c-103,29 -118,155 -24,196c47,20 576,20 615,-1zm-4070,-299c58,-56 49,-123 -22,-166c-29,-18 -52,-20 -250,-20c-233,0 -258,4 -291,52c-19,26 -21,77 -5,112c24,51 53,56 306,54l232,-3l30,-29zm4001,19c38,-19 70,-62 70,-92c0,-37 -27,-81 -60,-98c-41,-21 -444,-22 -494,-1c-42,18 -66,51 -66,94c0,44 14,69 53,92c29,18 52,20 250,20c173,0 224,-3 247,-15zm-4640,-264l55,-29l6,-82c11,-140 50,-171 233,-180c67,-4 129,-10 138,-14c22,-10 36,-59 43,-157c8,-91 27,-135 74,-166l34,-23l1818,2l1818,3l28,21c43,31 62,81 72,187c8,78 21,131 34,138c1,1 56,4 123,8c112,6 123,8 157,34c45,34 65,72 73,134c11,89 85,163 163,163c54,0 2151,-965 2263,-1041c329,-224 432,-677 230,-1017c-82,-138 -242,-277 -382,-332c-30,-12 -644,-188 -1365,-391c-720,-204 -1737,-491 -2260,-639c-522,-148 -964,-272 -982,-276c-26,-5 -34,-2 -46,17c-8,13 -77,265 -151,559c-75,294 -139,542 -142,551c-2,9 4,26 13,37c13,15 269,111 868,326c2510,898 2810,1007 2827,1027c10,12 18,26 18,31c0,23 -155,-24 -514,-154c-121,-43 -223,-75 -228,-70c-4,4 -10,43 -11,85c-5,120 -44,155 -173,156c-77,1 -151,-21 -198,-58c-23,-18 -58,-34 -89,-39c-29,-6 -186,-36 -349,-67c-239,-46 -310,-57 -360,-52c-52,4 -177,50 -708,263l-645,259l-100,0c-95,0 -105,-2 -205,-44c-58,-23 -234,-94 -391,-157c-285,-114 -286,-114 -370,-114c-47,0 -289,20 -539,45c-250,24 -795,76 -1210,115c-415,38 -773,73 -795,76c-27,3 -46,0 -60,-10c-19,-14 -19,-15 10,-26c98,-37 857,-124 1445,-165c173,-12 2010,-183 2413,-225c54,-5 102,-10 107,-10c6,0 19,-9 30,-20c19,-19 20,-33 20,-389c0,-203 -4,-381 -9,-394c-10,-26 -60,-50 -128,-62l-43,-7l0,389l-1,388l-29,-33l-30,-32l0,-354l0,-354l-25,-31c-17,-20 -48,-37 -93,-52c-37,-12 -163,-57 -280,-100c-172,-63 -217,-83 -237,-107c-14,-17 -38,-33 -54,-37c-15,-3 -246,-1 -512,5c-266,5 -799,17 -1184,25c-385,8 -869,20 -1075,26c-206,5 -532,14 -725,19c-375,9 -472,20 -591,65c-288,109 -494,410 -494,724c0,123 20,202 83,331c45,93 62,116 146,200c64,64 122,111 176,142c137,79 467,240 770,376c160,71 387,175 505,230c118,55 307,141 419,191c112,51 240,111 285,133c154,77 186,81 286,29zm604,-25c38,-16 76,-60 76,-88c0,-38 -31,-79 -73,-99c-36,-16 -67,-19 -210,-19c-181,0 -221,8 -251,51c-9,13 -16,43 -16,67c0,33 6,48 26,67c34,31 40,32 242,34c127,1 181,-3 206,-13zm3958,4c72,-20 101,-98 57,-154c-40,-51 -63,-56 -251,-56c-148,0 -179,3 -215,19c-47,22 -63,45 -63,91c0,42 15,67 53,90c28,18 51,20 207,20c96,0 192,-5 212,-10zm-1507,-1064c324,-130 601,-244 615,-253c25,-17 21,-18 -155,-53c-146,-30 -189,-42 -228,-67c-26,-17 -64,-34 -84,-38c-37,-7 -254,20 -283,34c-11,6 -16,32 -20,99c-4,66 -10,96 -22,108c-13,13 -121,26 -600,69c-321,28 -593,57 -603,62c-17,10 -17,11 3,22c12,6 157,65 324,130c167,65 310,121 318,124c8,4 44,5 80,3c57,-4 139,-34 655,-240zm1569,-172c3,-9 6,-60 6,-115c0,-91 -2,-100 -22,-113c-26,-16 -893,-326 -914,-326c-7,0 -25,19 -41,42c-47,69 -70,81 -181,88c-54,4 -108,12 -120,19c-12,6 -27,29 -33,50c-10,33 -9,45 7,78c18,36 24,39 94,57c68,17 1159,233 1186,235c7,1 15,-6 18,-15zm-1414,-317c15,-8 31,-30 41,-61c31,-86 50,-96 188,-100c84,-2 118,-16 146,-60c18,-26 13,-46 -14,-63c-22,-14 -632,-233 -648,-233c-24,0 -20,48 11,154c118,399 106,376 194,376c31,0 68,-6 82,-13zm-1607,-1258c21,-23 27,-39 27,-74c0,-53 -8,-60 -130,-106c-52,-20 -97,-45 -117,-65c-30,-29 -33,-38 -33,-90c0,-71 43,-253 74,-314c44,-88 125,-110 271,-75c56,14 62,13 85,-4c14,-10 31,-35 38,-57c11,-34 11,-41 -6,-64c-14,-18 -32,-27 -64,-31c-84,-12 -127,-47 -148,-119c-5,-17 -16,-98 -25,-178c-9,-81 -45,-367 -80,-637c-36,-269 -83,-627 -104,-795c-49,-378 -65,-428 -170,-523c-66,-59 -118,-84 -137,-66c-7,8 -96,340 -198,739c-158,619 -525,2054 -587,2289c-26,100 -25,127 4,135c20,6 369,27 972,60c132,7 254,11 270,8c17,-2 42,-17 58,-33zm279,29c22,-18 185,-279 229,-368c60,-123 87,-225 67,-253c-13,-17 -258,-97 -298,-97c-11,0 -38,10 -61,22c-40,20 -46,21 -113,9c-143,-26 -159,-26 -193,3c-33,28 -59,91 -88,216c-32,140 -13,172 129,215c120,37 138,54 145,141l6,69l65,27c75,31 90,33 112,16zm2742,-314c3,-9 6,-321 6,-693c0,-644 -1,-679 -18,-694c-17,-15 -23,-16 -69,-2c-68,20 -162,83 -196,132c-33,47 -49,84 -269,626c-93,231 -167,425 -164,433c7,19 83,53 117,54c14,0 33,-8 42,-18c9,-10 57,-121 107,-247c50,-126 96,-235 102,-242c13,-17 45,-17 51,0c5,15 -12,65 -107,305c-42,107 -76,202 -76,212c0,23 31,35 255,99c188,55 210,58 219,35z" id="svg_2"/>
   <path d="m6353,12025c-28,-20 -30,-56 -5,-78c41,-37 222,-6 222,37c0,42 -172,74 -217,41z" id="svg_3"/>
   <path d="m6916,12024c-24,-24 -20,-61 9,-80c20,-13 42,-16 105,-12c88,5 110,17 110,59c0,39 -28,49 -130,49c-58,0 -83,-4 -94,-16z" id="svg_4"/>
   <path d="m6736,11884c-12,-33 -5,-89 34,-250c22,-92 40,-168 40,-169c0,-2 -7,-11 -16,-19c-10,-11 -33,-16 -67,-16c-50,0 -97,-19 -97,-40c0,-15 100,-33 148,-26c69,9 92,28 92,76c0,80 -69,360 -106,432c-17,32 -20,34 -28,12z" id="svg_5"/>
   <path d="m6362,11870c-54,-11 -107,-41 -107,-61c0,-11 13,-14 61,-12c57,2 61,1 78,-27c24,-41 56,-47 110,-20c35,16 49,19 65,11c28,-16 61,-13 61,4c0,24 -59,83 -93,94c-51,15 -128,20 -175,11z" id="svg_6"/>
   <path d="m6997,11870c-81,-21 -137,-65 -137,-110c0,-16 52,-11 71,6c16,15 20,14 52,-10c44,-34 81,-33 112,0c14,15 25,31 25,36c0,5 19,6 44,3c47,-7 86,0 86,16c0,18 -108,60 -162,64c-29,2 -70,0 -91,-5z" id="svg_7"/>
   <path d="m6685,11260c-125,-5 -165,-13 -165,-31c0,-12 61,-56 103,-74c44,-18 182,-20 240,-3c52,16 129,86 107,97c-24,13 -144,17 -285,11z" id="svg_8"/>
   <path d="m6300,10554c0,-22 48,-77 93,-108c152,-104 414,-124 618,-47c67,25 143,89 157,131c14,37 2,39 -41,6c-104,-80 -256,-120 -427,-114c-127,5 -187,23 -321,99c-70,40 -79,44 -79,33z" id="svg_9"/>
   <path d="m6596,3788c8,-40 30,-134 49,-208c19,-74 62,-243 96,-375c33,-132 70,-260 82,-285l21,-45l4,48c10,151 -205,937 -256,937c-6,0 -4,-30 4,-72z" id="svg_10"/>
   <path d="m5720,2590c0,-6 -40,-316 -90,-688c-49,-373 -90,-690 -90,-705c0,-32 37,-58 51,-36c5,8 9,21 9,29c1,8 41,312 89,675c86,637 88,661 72,694c-16,34 -41,53 -41,31z" id="svg_11"/>
  </g>
  <rect fill="#000000" height="7" id="svg_13" stroke="#000000" transform="matrix(1 0 0 1 0 0)" width="1857" x="1.91" y="1371"/>
 </g>
</svg>