<svg version="1.1" id="Layer_1" xmlns="http://www.w3.org/2000/svg" xmlns:xlink="http://www.w3.org/1999/xlink" x="0px" y="0px"
	 width="100%" viewBox="0 0 225 225" enable-background="new 0 0 225 225" xml:space="preserve">
<path fill="#FF0000" opacity="1.000000" stroke="none" 
	d="
M123.000000,226.000000 
	C82.000000,226.000000 41.500004,226.000000 1.000005,226.000000 
	C1.000004,151.000000 1.000004,76.000015 1.000002,1.000015 
	C75.999992,1.000010 150.999985,1.000010 225.999969,1.000005 
	C225.999985,75.999985 225.999985,150.999969 226.000000,225.999969 
	C191.833328,226.000000 157.666672,226.000000 123.000000,226.000000 
M187.373444,134.596420 
	C189.823364,134.596420 192.273270,134.596420 194.582733,134.596420 
	C194.582733,127.475060 194.582733,120.904854 194.582733,113.831718 
	C192.326614,113.831718 190.084152,113.831718 187.841675,113.831718 
	C187.847458,113.540947 187.853256,113.250183 187.859039,112.959412 
	C190.124756,112.959412 192.390457,112.959412 194.807922,112.959412 
	C194.807922,110.846420 194.807922,109.100975 194.807922,106.853264 
	C192.341553,106.853264 190.061035,106.853264 187.780533,106.853264 
	C187.794266,106.561775 187.807999,106.270294 187.821716,105.978806 
	C190.083221,105.978806 192.344727,105.978806 194.808899,105.978806 
	C194.808899,103.865181 194.808899,102.122215 194.808899,99.875137 
	C192.337921,99.875137 190.044067,99.875137 187.750229,99.875137 
	C187.759766,99.526649 187.769302,99.178169 187.778839,98.829681 
	C190.161270,98.829681 192.543716,98.829681 194.733795,98.829681 
	C194.733795,96.527588 194.733795,94.771027 194.733795,93.084015 
	C140.402405,93.084015 86.358185,93.084015 32.327785,93.084015 
	C32.327785,95.140274 32.327785,96.893982 32.327785,99.073639 
	C35.161030,99.073639 37.745499,99.073639 40.329971,99.073639 
	C40.329685,99.307358 40.329399,99.541084 40.329109,99.774803 
	C37.603897,99.923920 34.878681,100.073036 32.262772,100.216171 
	C32.262772,102.307671 32.262772,103.924622 32.262772,106.117004 
	C34.983631,106.117004 37.539669,106.117004 40.095711,106.117004 
	C40.076363,106.454926 40.057018,106.792854 40.037670,107.130775 
	C37.453358,107.130775 34.869045,107.130775 32.364227,107.130775 
	C32.364227,109.306549 32.364227,111.042465 32.364227,113.179581 
	C35.195435,113.179581 37.724026,113.179581 40.252621,113.179581 
	C40.254425,113.463615 40.256229,113.747658 40.258030,114.031693 
	C37.673378,114.031693 35.088722,114.031693 32.338837,114.031693 
	C32.338837,121.029572 32.338837,127.581886 32.338837,134.596405 
	C83.884674,134.596405 135.145493,134.596405 187.373444,134.596420 
z"/>
<path fill="#FFF4F4" opacity="1.000000" stroke="none" 
	d="
M186.889877,134.596405 
	C135.145493,134.596405 83.884674,134.596405 32.338837,134.596405 
	C32.338837,127.581886 32.338837,121.029572 32.338837,114.031693 
	C35.088722,114.031693 37.673378,114.031693 40.258030,114.031693 
	C40.256229,113.747658 40.254425,113.463615 40.252621,113.179581 
	C37.724026,113.179581 35.195435,113.179581 32.364227,113.179581 
	C32.364227,111.042465 32.364227,109.306549 32.364227,107.130775 
	C34.869045,107.130775 37.453358,107.130775 40.037670,107.130775 
	C40.057018,106.792854 40.076363,106.454926 40.095711,106.117004 
	C37.539669,106.117004 34.983631,106.117004 32.262772,106.117004 
	C32.262772,103.924622 32.262772,102.307671 32.262772,100.216171 
	C34.878681,100.073036 37.603897,99.923920 40.329109,99.774803 
	C40.329399,99.541084 40.329685,99.307358 40.329971,99.073639 
	C37.745499,99.073639 35.161030,99.073639 32.327785,99.073639 
	C32.327785,96.893982 32.327785,95.140274 32.327785,93.084015 
	C86.358185,93.084015 140.402405,93.084015 194.733795,93.084015 
	C194.733795,94.771027 194.733795,96.527588 194.733795,98.829681 
	C192.543716,98.829681 190.161270,98.829681 187.778839,98.829681 
	C187.769302,99.178169 187.759766,99.526649 187.750229,99.875137 
	C190.044067,99.875137 192.337921,99.875137 194.808899,99.875137 
	C194.808899,102.122215 194.808899,103.865181 194.808899,105.978806 
	C192.344727,105.978806 190.083221,105.978806 187.821716,105.978806 
	C187.807999,106.270294 187.794266,106.561775 187.780533,106.853264 
	C190.061035,106.853264 192.341553,106.853264 194.807922,106.853264 
	C194.807922,109.100975 194.807922,110.846420 194.807922,112.959412 
	C192.390457,112.959412 190.124756,112.959412 187.859039,112.959412 
	C187.853256,113.250183 187.847458,113.540947 187.841675,113.831718 
	C190.084152,113.831718 192.326614,113.831718 194.582733,113.831718 
	C194.582733,120.904854 194.582733,127.475060 194.582733,134.596420 
	C192.273270,134.596420 189.823364,134.596420 186.889877,134.596405 
M126.140656,107.768349 
	C125.333252,111.674973 124.525848,115.581604 123.718445,119.488228 
	C123.446587,119.496582 123.174736,119.504936 122.902885,119.513283 
	C121.210297,112.688751 119.517715,105.864212 117.890068,99.301521 
	C113.795090,99.301521 110.211136,99.301521 106.520317,99.301521 
	C104.501617,108.952995 102.547798,118.294296 100.538986,127.898514 
	C103.224403,127.898514 105.315498,127.898514 107.527779,127.898514 
	C109.108673,120.713829 110.642769,113.741882 112.468712,105.443550 
	C113.803322,110.841805 114.830093,114.845322 115.779999,118.867004 
	C118.029114,128.389160 118.014435,128.395370 127.770638,128.099716 
	C128.084229,128.090210 128.392288,127.898621 129.095016,127.657242 
	C131.074738,118.374573 133.097702,108.889175 135.177948,99.135147 
	C132.570587,99.135147 130.457962,99.135147 128.269806,99.135147 
	C128.010849,100.060211 127.766518,100.831436 127.580956,101.616547 
	C127.161324,103.392014 126.770699,105.174347 126.140656,107.768349 
M61.595966,118.840172 
	C60.399929,123.010132 55.070530,125.181091 53.410820,121.976395 
	C51.029987,117.379272 47.765285,119.504417 44.493759,119.119408 
	C43.757935,122.880753 44.565365,125.657310 47.746838,127.454185 
	C52.945808,130.390503 63.162743,128.930191 67.410995,124.690987 
	C72.526566,119.586281 70.826073,112.974541 63.892296,111.052902 
	C62.454777,110.654510 60.869038,110.575905 59.582874,109.905945 
	C58.254833,109.214172 57.096115,108.073181 56.139778,106.902802 
	C55.960976,106.683983 56.974304,104.848801 57.633152,104.713699 
	C59.302971,104.371254 62.160934,103.898407 62.639996,104.665802 
	C65.148026,108.683357 68.528770,106.987289 72.445686,106.316742 
	C71.446770,103.690613 70.380417,100.526688 68.304657,99.582947 
	C62.737354,97.051758 56.591919,97.392174 51.773876,101.174347 
	C49.441658,103.005150 47.750046,107.013008 47.792980,110.006157 
	C47.819408,111.848602 51.488163,113.935165 53.853611,115.361313 
	C56.059513,116.691269 58.704506,117.292931 61.595966,118.840172 
M162.072083,110.473709 
	C161.347885,106.644669 160.623703,102.815636 160.002899,99.533203 
	C152.628159,97.336601 148.212234,99.783669 145.768524,106.200142 
	C145.248840,107.564682 144.164276,108.706696 143.397842,109.985916 
	C139.881363,115.855148 136.385422,121.736687 132.746094,127.841995 
	C137.311768,128.474716 141.084290,128.944809 142.745499,124.043510 
	C142.989441,123.323792 144.160355,122.489792 144.937805,122.452774 
	C148.500717,122.283142 152.076218,122.378166 155.491608,122.378166 
	C155.908279,124.766289 156.182556,126.338310 156.439621,127.811615 
	C159.511856,127.811615 162.236938,127.811615 165.303741,127.811615 
	C164.212830,122.058128 163.195587,116.693275 162.072083,110.473709 
M76.886429,111.398109 
	C75.734138,116.835846 74.581848,122.273582 73.385292,127.920219 
	C81.091789,127.920219 88.187881,127.920219 95.652702,127.920219 
	C95.842613,126.229851 96.011742,124.724373 96.224266,122.832748 
	C91.467865,122.832748 87.189682,122.832748 82.903633,122.832748 
	C83.197517,116.105797 83.197517,116.105194 89.024239,116.101135 
	C91.502846,116.099403 93.981445,116.100838 96.738884,116.100838 
	C97.175758,114.391853 97.566231,112.864365 98.073387,110.880440 
	C93.578026,110.880440 89.465370,110.880440 84.776062,110.880440 
	C85.377548,108.393806 85.858955,106.403595 86.419754,104.085159 
	C91.358658,104.085159 95.951324,104.085159 100.759331,104.085159 
	C101.002075,102.252434 101.192993,100.810989 101.403923,99.218430 
	C94.003876,99.218430 86.750992,99.218430 79.408356,99.218430 
	C78.569298,103.150078 77.778755,106.854393 76.886429,111.398109 
M181.211105,106.732071 
	C181.757339,104.240433 182.303558,101.748795 182.888657,99.079819 
	C180.105637,99.079819 177.803238,99.079819 175.055954,99.079819 
	C173.013199,108.604919 170.975998,118.104172 168.874054,127.905281 
	C171.607300,127.905281 174.042572,127.905281 176.794113,127.905281 
	C178.221268,121.123276 179.647995,114.343330 181.211105,106.732071 
z"/>
<path fill="#FF0606" opacity="1.000000" stroke="none" 
	d="
M126.254471,107.361115 
	C126.770699,105.174347 127.161324,103.392014 127.580956,101.616547 
	C127.766518,100.831436 128.010849,100.060211 128.269806,99.135147 
	C130.457962,99.135147 132.570587,99.135147 135.177948,99.135147 
	C133.097702,108.889175 131.074738,118.374573 129.095016,127.657242 
	C128.392288,127.898621 128.084229,128.090210 127.770638,128.099716 
	C118.014435,128.395370 118.029114,128.389160 115.779999,118.867004 
	C114.830093,114.845322 113.803322,110.841805 112.468712,105.443550 
	C110.642769,113.741882 109.108673,120.713829 107.527779,127.898514 
	C105.315498,127.898514 103.224403,127.898514 100.538986,127.898514 
	C102.547798,118.294296 104.501617,108.952995 106.520317,99.301521 
	C110.211136,99.301521 113.795090,99.301521 117.890068,99.301521 
	C119.517715,105.864212 121.210297,112.688751 122.902885,119.513283 
	C123.174736,119.504936 123.446587,119.496582 123.718445,119.488228 
	C124.525848,115.581604 125.333252,111.674973 126.254471,107.361115 
z"/>
<path fill="#FF0909" opacity="1.000000" stroke="none" 
	d="
M61.376091,118.527672 
	C58.704506,117.292931 56.059513,116.691269 53.853611,115.361313 
	C51.488163,113.935165 47.819408,111.848602 47.792980,110.006157 
	C47.750046,107.013008 49.441658,103.005150 51.773876,101.174347 
	C56.591919,97.392174 62.737354,97.051758 68.304657,99.582947 
	C70.380417,100.526688 71.446770,103.690613 72.445686,106.316742 
	C68.528770,106.987289 65.148026,108.683357 62.639996,104.665802 
	C62.160934,103.898407 59.302971,104.371254 57.633152,104.713699 
	C56.974304,104.848801 55.960976,106.683983 56.139778,106.902802 
	C57.096115,108.073181 58.254833,109.214172 59.582874,109.905945 
	C60.869038,110.575905 62.454777,110.654510 63.892296,111.052902 
	C70.826073,112.974541 72.526566,119.586281 67.410995,124.690987 
	C63.162743,128.930191 52.945808,130.390503 47.746838,127.454185 
	C44.565365,125.657310 43.757935,122.880753 44.493759,119.119408 
	C47.765285,119.504417 51.029987,117.379272 53.410820,121.976395 
	C55.070530,125.181091 60.399929,123.010132 61.376091,118.527672 
z"/>
<path fill="#FF0505" opacity="1.000000" stroke="none" 
	d="
M162.125214,110.901062 
	C163.195587,116.693275 164.212830,122.058128 165.303741,127.811615 
	C162.236938,127.811615 159.511856,127.811615 156.439621,127.811615 
	C156.182556,126.338310 155.908279,124.766289 155.491608,122.378166 
	C152.076218,122.378166 148.500717,122.283142 144.937805,122.452774 
	C144.160355,122.489792 142.989441,123.323792 142.745499,124.043510 
	C141.084290,128.944809 137.311768,128.474716 132.746094,127.841995 
	C136.385422,121.736687 139.881363,115.855148 143.397842,109.985916 
	C144.164276,108.706696 145.248840,107.564682 145.768524,106.200142 
	C148.212234,99.783669 152.628159,97.336601 160.002899,99.533203 
	C160.623703,102.815636 161.347885,106.644669 162.125214,110.901062 
M151.064346,108.596405 
	C149.684723,111.238289 148.305115,113.880180 146.875031,116.618683 
	C150.007126,116.618683 152.395264,116.618683 154.990967,116.618683 
	C154.495026,112.631645 154.049103,109.046745 153.493561,104.580627 
	C152.453308,106.298286 151.949539,107.130096 151.064346,108.596405 
z"/>
<path fill="#FF0404" opacity="1.000000" stroke="none" 
	d="
M76.937317,110.978409 
	C77.778755,106.854393 78.569298,103.150078 79.408356,99.218430 
	C86.750992,99.218430 94.003876,99.218430 101.403923,99.218430 
	C101.192993,100.810989 101.002075,102.252434 100.759331,104.085159 
	C95.951324,104.085159 91.358658,104.085159 86.419754,104.085159 
	C85.858955,106.403595 85.377548,108.393806 84.776062,110.880440 
	C89.465370,110.880440 93.578026,110.880440 98.073387,110.880440 
	C97.566231,112.864365 97.175758,114.391853 96.738884,116.100838 
	C93.981445,116.100838 91.502846,116.099403 89.024239,116.101135 
	C83.197517,116.105194 83.197517,116.105797 82.903633,122.832748 
	C87.189682,122.832748 91.467865,122.832748 96.224266,122.832748 
	C96.011742,124.724373 95.842613,126.229851 95.652702,127.920219 
	C88.187881,127.920219 81.091789,127.920219 73.385292,127.920219 
	C74.581848,122.273582 75.734138,116.835846 76.937317,110.978409 
z"/>
<path fill="#FF0606" opacity="1.000000" stroke="none" 
	d="
M181.142914,107.147728 
	C179.647995,114.343330 178.221268,121.123276 176.794113,127.905281 
	C174.042572,127.905281 171.607300,127.905281 168.874054,127.905281 
	C170.975998,118.104172 173.013199,108.604919 175.055954,99.079819 
	C177.803238,99.079819 180.105637,99.079819 182.888657,99.079819 
	C182.303558,101.748795 181.757339,104.240433 181.142914,107.147728 
z"/>
<path fill="#FFEFEF" opacity="1.000000" stroke="none" 
	d="
M151.255066,108.279160 
	C151.949539,107.130096 152.453308,106.298286 153.493561,104.580627 
	C154.049103,109.046745 154.495026,112.631645 154.990967,116.618683 
	C152.395264,116.618683 150.007126,116.618683 146.875031,116.618683 
	C148.305115,113.880180 149.684723,111.238289 151.255066,108.279160 
z"/>
</svg>