<svg version="1.1" id="Layer_1" xmlns="http://www.w3.org/2000/svg" xmlns:xlink="http://www.w3.org/1999/xlink" x="0px" y="0px"
	 width="100%" viewBox="0 0 792 736" enable-background="new 0 0 792 736" xml:space="preserve">
<path fill="#FFFFFE" opacity="1.000000" stroke="none" 
	d="
M793.000000,92.000000 
	C793.000000,306.967072 793.000000,521.934143 793.000000,736.950623 
	C529.073364,736.950623 265.146698,736.950623 1.110020,736.950623 
	C1.110020,491.777618 1.110020,246.555176 1.110020,1.000000 
	C190.026718,1.000000 379.053650,1.000000 568.230591,1.268462 
	C584.580139,21.510975 600.428223,41.758671 613.403564,64.030914 
	C618.706848,73.133926 623.240295,82.685402 627.782715,92.075066 
	C626.985413,92.153641 626.529419,92.190010 625.785400,92.124939 
	C625.305420,92.090851 625.113342,92.158203 624.458984,92.192291 
	C545.539612,92.150063 467.082458,92.134377 388.625305,92.138512 
	C375.134583,92.139221 361.643829,92.224258 347.688171,92.135727 
	C338.994476,92.001114 330.765656,92.001114 322.536865,92.001114 
	C322.537018,92.207672 322.537140,92.414230 322.537292,92.620789 
	C333.031708,93.604599 343.526154,94.588402 354.391510,95.663490 
	C355.522400,95.826317 356.282379,95.897865 357.119751,96.130203 
	C357.498566,96.230247 357.800018,96.169502 358.356018,96.179825 
	C358.959625,96.294785 359.308624,96.338669 359.857666,96.583954 
	C361.042603,96.912018 362.027527,97.038696 363.326263,97.230713 
	C364.273163,97.394386 364.906281,97.492729 365.739471,97.823677 
	C366.689636,98.098244 367.439758,98.140205 368.528503,98.328659 
	C369.589417,98.593208 370.311737,98.711258 371.217224,99.090637 
	C371.988953,99.344910 372.577484,99.337868 373.521210,99.475311 
	C374.887878,99.772896 375.899384,99.926003 377.049377,100.272095 
	C377.187866,100.465088 377.627502,100.639626 377.627502,100.639626 
	C377.627502,100.639626 378.043915,100.415382 378.356018,100.547058 
	C379.109222,100.770378 379.550354,100.862030 380.144958,101.150620 
	C380.298431,101.347549 380.776093,101.487930 380.776093,101.487930 
	C380.776093,101.487930 381.222015,101.266502 381.501038,101.410110 
	C382.186249,101.647652 382.592468,101.741577 383.231934,102.123077 
	C385.954010,102.990456 388.442810,103.570267 391.242737,104.317123 
	C423.453888,115.321548 450.988464,132.604050 471.960846,159.389908 
	C482.894073,173.353836 491.809753,188.487427 497.158997,205.825623 
	C497.382446,206.420334 497.600403,206.725708 497.906891,207.079102 
	C497.995422,207.127106 497.928619,207.317154 497.948181,207.378906 
	C497.967743,207.440659 498.063385,207.675568 498.303040,208.028107 
	C498.656586,208.931473 498.770477,209.482315 498.630951,210.273209 
	C498.396698,212.400726 498.795715,214.382538 498.355316,216.155853 
	C497.459015,219.765015 498.869385,221.098587 502.473816,221.358826 
	C502.719452,222.120956 502.759552,222.590363 502.548462,223.279648 
	C501.599518,225.281052 499.872711,227.487457 500.399536,228.763245 
	C501.895630,232.386261 504.312134,235.629227 506.534424,239.320877 
	C506.703613,240.073013 506.704651,240.526093 506.372070,241.069672 
	C507.162933,247.446579 508.287506,253.732941 509.579285,260.369049 
	C509.742584,261.487061 509.738647,262.255371 509.601532,263.121216 
	C509.309814,263.565887 509.417145,263.821686 509.895752,264.357422 
	C509.970673,265.493958 509.940063,266.259216 509.628113,267.327728 
	C509.229858,280.001099 509.091309,292.371124 509.034241,304.741547 
	C509.029297,305.816589 509.561157,306.894104 509.917603,308.369690 
	C509.871948,309.838257 509.752380,310.907654 509.279144,312.103149 
	C508.282562,316.338531 507.468567,320.430634 507.052765,324.562805 
	C506.739716,327.673737 506.937134,330.836029 506.955414,334.403198 
	C506.718933,336.216370 506.434387,337.601776 505.938843,339.075439 
	C505.774719,339.766266 505.821655,340.368805 505.919861,341.360901 
	C505.755463,342.491821 505.539734,343.233185 505.065002,344.076782 
	C504.846466,345.114136 504.886932,346.049225 504.964417,347.398254 
	C504.738892,348.872620 504.476379,349.933014 503.924805,351.153748 
	C503.493011,352.400879 503.350250,353.487640 503.312256,354.766113 
	C503.447937,355.271179 503.349091,355.536072 503.062286,356.031464 
	C502.994995,356.500153 502.986023,356.689911 502.982758,357.167755 
	C502.902161,357.627380 502.815796,357.798950 502.341370,357.995544 
	C499.891235,359.988434 498.564362,368.599030 499.987885,371.327087 
	C499.730286,372.456512 499.438110,373.258148 498.957855,374.099121 
	C498.677094,374.224457 498.490723,374.354309 498.507080,374.389221 
	C498.606659,374.601929 498.752289,374.793091 498.901306,375.341034 
	C498.750946,376.119263 498.581848,376.547852 498.110657,377.095032 
	C495.438904,381.153046 493.755768,385.246979 494.949371,390.362549 
	C494.804138,391.214386 494.644196,391.688629 494.331421,392.331390 
	C494.113525,392.946564 494.048401,393.393219 494.006927,393.900940 
	C494.030548,393.962006 493.910004,394.013153 493.596771,394.048645 
	C493.148224,395.045837 493.012909,396.007568 492.861328,397.397064 
	C492.585327,398.327118 492.325592,398.829407 492.045105,399.381927 
	C492.024384,399.432159 491.947754,399.638184 491.909668,399.992798 
	C491.758118,400.556335 491.644714,400.765259 491.213257,401.088776 
	C489.645203,404.020782 489.071411,407.572723 486.990967,409.488312 
	C483.638947,412.574677 484.002045,416.843445 482.109436,420.322937 
	C480.199585,423.834198 482.557922,429.069611 477.094604,431.512634 
	C475.678558,432.145874 475.398285,435.954346 475.135895,438.363098 
	C474.841431,441.066071 475.158691,443.835663 475.258423,446.678833 
	C475.307037,446.781342 475.167816,446.960571 474.854431,447.148346 
	C473.453979,450.111237 472.366913,452.886322 471.346527,455.900085 
	C471.386993,456.489349 471.237183,456.775085 470.651367,457.132263 
	C466.878632,458.331299 467.143799,460.723206 468.154388,463.680420 
	C467.945984,464.309875 467.741058,464.641144 467.224274,465.067627 
	C464.870392,467.916046 462.070953,470.360413 463.162903,474.561462 
	C463.174408,474.736115 462.931763,474.988434 462.604919,475.041260 
	C460.923981,475.914856 459.569885,476.735657 457.264252,478.133209 
	C457.264252,479.382874 457.264252,481.983093 457.264252,484.791779 
	C454.850281,484.121490 453.174286,483.656128 451.498291,483.190765 
	C451.296661,483.544006 451.095001,483.897247 450.893372,484.250488 
	C452.198578,485.740021 453.503815,487.229584 454.331665,488.174347 
	C451.391693,493.118286 448.574097,497.478271 449.045105,503.359406 
	C449.035675,503.594604 448.763000,503.978394 448.433594,504.053772 
	C447.790253,504.894562 447.476349,505.659943 447.177795,506.594147 
	C447.193115,506.762970 446.950623,506.999939 446.711792,507.164917 
	C446.362762,507.693054 446.252533,508.056183 446.140747,508.706390 
	C445.951935,509.320709 445.764740,509.647949 445.265503,510.070251 
	C444.694916,510.936432 444.436340,511.707520 444.189087,512.636475 
	C444.200378,512.794250 443.950684,512.988708 443.588379,513.027771 
	C441.813416,514.891907 440.406708,516.721619 438.986908,518.541138 
	C435.341614,523.212769 435.966309,531.618896 427.080627,531.868042 
	C427.295929,533.050659 427.971985,534.349854 427.616699,535.235046 
	C426.156403,538.873230 424.290009,542.346985 422.778931,545.967163 
	C422.313141,547.083130 422.502045,548.472351 422.342285,550.097900 
	C421.904572,551.066162 421.515717,551.672974 421.104828,552.311523 
	C421.082794,552.343323 421.027802,552.486572 420.928162,552.781616 
	C420.551971,553.381836 420.275452,553.687012 419.619995,553.999695 
	C417.902161,556.419250 416.563232,558.831299 415.182007,561.140076 
	C415.139740,561.036804 415.270020,561.218018 414.875122,561.156433 
	C413.763062,561.368164 413.045929,561.641541 412.328827,561.914917 
	C412.733154,562.695496 413.137512,563.476135 413.400024,564.615967 
	C412.934692,565.371399 412.611176,565.767639 412.221375,566.225342 
	C412.155121,566.286804 411.986664,566.606323 411.978027,566.736145 
	C411.969391,566.865967 411.723419,566.951111 411.389771,567.008606 
	C409.391266,568.321106 407.876862,570.292603 406.029968,570.680298 
	C402.311310,571.461060 402.762115,573.481873 403.501740,576.030457 
	C403.768494,576.949707 403.828705,577.928955 403.989258,578.931030 
	C403.995331,578.981262 403.894409,578.988647 403.521240,578.977722 
	C401.730957,578.687317 400.313843,578.407898 398.480560,578.046326 
	C398.572571,579.717041 398.646942,581.068054 398.736664,582.697388 
	C397.054382,582.697388 395.696259,582.697388 393.028442,582.697388 
	C394.353790,585.466492 395.333069,587.512573 396.306702,589.699219 
	C396.301025,589.839722 396.059540,589.983948 395.816071,590.106506 
	C395.425812,590.549988 395.279022,590.870911 395.135620,591.138977 
	C395.139038,591.086121 395.214996,591.159973 394.832214,591.159180 
	C394.006378,592.200684 393.563263,593.242981 393.049011,594.552979 
	C392.589722,595.207581 392.201569,595.594482 391.493591,596.042603 
	C390.859619,596.817017 390.545410,597.530212 390.178925,598.119751 
	C390.126617,597.996094 390.263519,598.227173 389.836853,598.154907 
	C387.856689,598.378174 385.373932,598.176636 384.905365,599.052551 
	C382.463684,603.616943 378.336365,607.612183 379.173157,613.645386 
	C379.166229,613.803284 378.904785,613.980896 378.537476,613.988159 
	C373.073914,615.986450 371.545929,620.532104 370.109528,625.092407 
	C370.057068,625.003906 370.190735,625.160400 369.814056,625.134766 
	C366.394775,625.724976 363.283691,626.476074 362.958801,621.502563 
	C363.032471,620.789917 363.062469,620.382874 363.471497,619.989807 
	C364.844757,619.472412 365.839020,618.941040 366.833252,618.409729 
	C366.279602,617.715637 365.725952,617.021606 365.172272,616.327515 
	C364.109283,617.448547 363.046326,618.569641 361.604370,619.752380 
	C360.492035,619.619019 359.758728,619.424072 358.937927,619.005615 
	C358.238556,618.841614 357.626587,618.901001 356.601318,618.996094 
	C311.257477,611.354614 269.291077,596.237122 232.416901,568.833618 
	C201.696991,546.003784 178.451843,517.213135 163.989975,481.505249 
	C152.941345,454.224976 148.358932,425.815002 148.341980,396.570496 
	C148.284348,297.095581 148.323380,197.620636 148.325500,98.145706 
	C148.325546,96.402481 148.325516,94.659256 148.325516,93.020477 
	C102.455086,93.020477 57.397774,93.020477 11.982900,93.020477 
	C11.982900,96.193993 11.982865,99.000145 11.982905,101.806290 
	C11.984469,212.445068 11.965571,323.083832 12.024641,433.722595 
	C12.029617,443.042694 12.276430,452.380951 12.887440,461.679474 
	C17.246077,528.010376 42.039207,585.926086 85.541885,635.881897 
	C112.697403,667.065613 145.336945,691.198486 182.782928,708.690918 
	C205.194061,719.160034 228.590729,726.786560 253.045822,730.817993 
	C255.269409,731.184570 258.449188,730.388611 260.087341,728.913574 
	C270.479858,719.555969 280.524414,709.813354 290.771637,700.292236 
	C294.000488,697.292175 297.499573,694.583069 301.033875,692.005859 
	C301.401306,691.397644 301.609863,690.524231 301.959167,689.397827 
	C302.963623,688.386963 303.827362,687.629211 305.063171,686.866821 
	C305.912689,686.135376 306.390198,685.408569 307.025269,684.402100 
	C309.312927,682.013794 311.442993,679.905151 313.895935,677.929321 
	C314.964569,678.134033 315.710358,678.205933 316.456146,678.277893 
	C316.228638,677.359680 316.001099,676.441528 315.836090,675.351074 
	C315.898590,675.178894 316.229218,675.020996 316.601624,675.019897 
	C320.626556,674.520630 324.739929,673.105774 325.078217,679.078247 
	C325.034698,679.042053 325.127808,679.122070 324.723785,679.085815 
	C321.148346,679.085815 320.824066,681.079163 321.157410,683.821960 
	C320.693481,684.380493 320.288239,684.681946 319.575378,685.014526 
	C318.943329,685.495178 318.618866,685.944702 318.322388,686.281372 
	C318.350403,686.168457 318.349701,686.401123 317.978394,686.253052 
	C316.320068,685.740906 315.033081,685.376892 314.528046,685.234009 
	C313.407593,686.903320 312.703186,687.952820 311.963562,688.718262 
	C311.624420,688.111572 311.320465,687.788818 311.016510,687.466125 
	C310.835114,687.675232 310.653717,687.884277 310.472290,688.093323 
	C310.981934,688.395020 311.491577,688.696716 311.935547,689.356445 
	C311.404755,690.116089 310.888214,690.472229 310.484192,690.928101 
	C309.311340,692.251465 307.347565,693.568909 307.270325,694.975342 
	C307.190979,696.418823 308.785065,698.141602 309.989288,699.419434 
	C311.404358,700.920959 313.188080,702.075195 314.637085,703.646973 
	C313.732910,704.315491 313.003632,704.717102 311.874207,705.086487 
	C310.702362,705.836792 309.930695,706.619324 308.964966,707.664062 
	C296.841766,716.359314 284.912659,724.792480 271.944763,733.959900 
	C306.820068,737.556885 339.962311,736.304138 372.720520,728.969055 
	C420.490814,718.272583 463.141113,697.066162 500.508667,665.399963 
	C526.100952,643.712402 547.641296,618.569885 564.652527,589.316040 
	C564.729065,588.859558 564.647583,588.582825 564.566040,588.306152 
	C564.353210,588.510498 564.140381,588.714844 563.558838,588.927979 
	C550.502380,594.317322 538.010376,600.232117 525.086670,604.969116 
	C496.644562,615.394104 467.059021,620.813904 436.891266,622.603638 
	C427.711243,623.148315 419.144257,623.896667 412.162781,630.409668 
	C410.875793,628.080383 409.737732,626.100952 408.599701,624.121521 
	C409.185425,624.135803 409.771149,624.150146 410.356903,624.164490 
	C411.252533,623.291748 412.199219,622.464050 413.025146,621.529663 
	C413.543335,620.943359 414.023956,619.559509 414.276672,619.616638 
	C418.618805,620.597839 419.020538,617.706055 419.515381,614.653137 
	C419.624207,613.981628 420.533569,612.989197 421.155640,612.924255 
	C425.367004,612.484863 426.374023,607.888733 429.471558,606.505249 
	C433.276855,604.805725 434.500580,600.353088 439.075867,599.235291 
	C441.491119,598.645142 443.039368,594.506409 445.132324,591.674805 
	C447.159210,590.236633 449.032837,589.093384 451.304047,587.973389 
	C454.385803,588.704834 457.273560,589.945007 457.588440,585.293091 
	C459.242188,586.432556 460.494141,587.295227 462.336273,588.564514 
	C463.405212,584.664673 464.269775,581.510559 465.200287,578.115662 
	C466.428864,578.578857 467.875549,579.124268 469.236572,579.637451 
	C471.570404,575.457703 473.763336,571.530334 475.956268,567.602966 
	C477.618500,573.456116 477.836151,573.578613 481.974304,570.816895 
	C481.729889,570.288086 481.455170,569.728821 481.209686,569.156921 
	C479.660004,565.546753 481.204865,560.106079 483.743225,560.551819 
	C487.761993,561.257629 488.697540,559.251953 489.064026,555.980286 
	C489.173798,555.000183 489.854095,553.411926 490.471588,553.310303 
	C491.530365,553.136353 492.729156,553.978333 493.899414,554.273682 
	C495.161377,554.592163 496.948059,555.413818 497.641022,554.884216 
	C499.240204,553.662109 500.316040,551.755127 501.724030,549.974304 
	C500.825806,548.712830 499.875031,547.377625 498.640808,545.644287 
	C502.559784,544.838928 505.526581,543.953064 504.481812,539.475891 
	C504.343689,538.883972 506.060028,537.285339 507.089722,537.097656 
	C510.870758,536.408630 513.605408,534.950012 513.319031,530.152893 
	C514.912292,531.226685 516.015198,531.969971 517.530884,532.991455 
	C517.898743,530.365479 518.183838,528.330322 518.423340,526.620850 
	C520.874207,526.000244 522.831726,525.504578 525.118225,524.925598 
	C524.286682,523.106506 523.767883,521.971436 523.041321,520.382019 
	C527.339905,520.364014 529.526794,518.765991 529.241150,514.443359 
	C529.173645,513.422302 530.747925,511.791229 531.931030,511.274689 
	C537.398926,508.887451 537.977173,507.628601 536.048767,500.630127 
	C538.296265,497.818726 540.398865,495.330658 542.475952,492.821381 
	C549.115356,484.800385 555.823669,476.834686 562.356201,468.727448 
	C568.537354,461.056305 574.748779,453.392151 580.533752,445.424927 
	C584.827881,439.510925 588.437317,433.101807 592.394104,426.940399 
	C597.497009,418.994446 602.977722,411.268799 607.683716,403.095917 
	C613.504333,392.987518 618.959229,382.645874 624.087830,372.167938 
	C629.310486,361.497833 634.491333,350.746246 638.683167,339.649841 
	C642.873962,328.556274 645.544739,316.898682 649.375793,305.656616 
	C654.447144,290.774719 657.964966,275.637787 659.049988,259.926239 
	C659.562805,252.500671 661.061279,245.109528 661.128113,237.693909 
	C661.262268,222.799286 661.464600,207.836243 660.223999,193.019882 
	C659.213318,180.949265 656.268982,169.026321 653.933289,157.086548 
	C652.668030,150.618378 651.455750,144.043839 649.218079,137.880875 
	C643.718872,122.734802 637.639709,107.799339 631.988770,92.732574 
	C632.464783,92.625511 632.657410,92.461479 633.245056,92.184357 
	C665.851074,92.170380 697.973755,92.184319 730.096375,92.154976 
	C751.064270,92.135818 772.032104,92.053833 793.000000,92.000000 
M530.034058,525.532471 
	C531.080872,526.273682 532.127625,527.014832 533.174438,527.755981 
	C533.421631,527.399597 533.668823,527.043213 533.915955,526.686768 
	C532.636597,525.201233 531.357178,523.715637 530.077759,522.230042 
	C529.805237,522.380432 529.532715,522.530823 529.260132,522.681213 
	C529.463440,523.414734 529.666748,524.148254 530.034058,525.532471 
M424.789215,617.030090 
	C423.978821,617.258484 423.168427,617.486816 422.357971,617.715149 
	C422.748962,618.326721 423.139954,618.938232 423.530914,619.549744 
	C423.998871,618.928833 424.466827,618.307922 424.789215,617.030090 
M384.393433,594.201233 
	C384.786285,594.205444 385.179169,594.209717 385.572021,594.213928 
	C385.573547,594.050903 385.586029,593.746094 385.575012,593.745239 
	C385.184052,593.715027 384.790894,593.713257 384.393433,594.201233 
z"/>
<path fill="#59585D" opacity="1.000000" stroke="none" 
	d="
M628.123962,92.032860 
	C623.240295,82.685402 618.706848,73.133926 613.403564,64.030914 
	C600.428223,41.758671 584.580139,21.510975 568.690308,1.268462 
	C625.687561,1.000000 682.375122,1.000000 739.562134,1.341206 
	C760.037964,25.150463 777.762878,50.200916 793.000000,77.000000 
	C793.000000,81.689255 793.000000,86.378510 793.000000,91.533875 
	C772.032104,92.053833 751.064270,92.135818 730.096375,92.154976 
	C697.973755,92.184319 665.851074,92.170380 632.995300,92.089371 
	C631.908936,92.054001 631.555664,92.104057 630.905884,92.132523 
	C630.414124,92.144974 630.218933,92.179031 629.700745,92.099594 
	C628.934387,91.983803 628.490906,91.981491 628.053345,92.011459 
	C628.059143,92.043724 628.123962,92.032860 628.123962,92.032860 
z"/>
<path fill="#FDFDFD" opacity="1.000000" stroke="none" 
	d="
M793.000000,76.531342 
	C777.762878,50.200916 760.037964,25.150463 740.030823,1.341206 
	C757.606567,1.000000 775.213074,1.000000 793.000000,1.000000 
	C793.000000,26.020605 793.000000,51.041645 793.000000,76.531342 
z"/>
<path fill="#59585D" opacity="1.000000" stroke="none" 
	d="
M300.874939,691.740784 
	C297.499573,694.583069 294.000488,697.292175 290.771637,700.292236 
	C280.524414,709.813354 270.479858,719.555969 260.087341,728.913574 
	C258.449188,730.388611 255.269409,731.184570 253.045822,730.817993 
	C228.590729,726.786560 205.194061,719.160034 182.782928,708.690918 
	C145.336945,691.198486 112.697403,667.065613 85.541885,635.881897 
	C42.039207,585.926086 17.246077,528.010376 12.887440,461.679474 
	C12.276430,452.380951 12.029617,443.042694 12.024641,433.722595 
	C11.965571,323.083832 11.984469,212.445068 11.982905,101.806290 
	C11.982865,99.000145 11.982900,96.193993 11.982900,93.020477 
	C57.397774,93.020477 102.455086,93.020477 148.325516,93.020477 
	C148.325516,94.659256 148.325546,96.402481 148.325500,98.145706 
	C148.323380,197.620636 148.284348,297.095581 148.341980,396.570496 
	C148.358932,425.815002 152.941345,454.224976 163.989975,481.505249 
	C178.451843,517.213135 201.696991,546.003784 232.416901,568.833618 
	C269.291077,596.237122 311.257477,611.354614 356.826782,619.148438 
	C357.985504,619.253113 358.505463,619.241150 359.025391,619.229126 
	C359.758728,619.424072 360.492035,619.619019 361.870544,619.866882 
	C362.707977,619.938477 362.900238,619.957153 363.092499,619.975891 
	C363.062469,620.382874 363.032471,620.789917 362.644135,621.634338 
	C346.933624,639.721558 331.581421,657.371277 316.229218,675.020996 
	C316.229218,675.020996 315.898590,675.178894 315.547119,675.496521 
	C314.654816,676.474915 314.113953,677.135742 313.573090,677.796509 
	C311.442993,679.905151 309.312927,682.013794 306.722046,684.507263 
	C305.737854,685.551880 305.214508,686.211670 304.691162,686.871460 
	C303.827362,687.629211 302.963623,688.386963 301.676117,689.554443 
	C301.126556,690.556396 301.000763,691.148621 300.874939,691.740784 
z"/>
<path fill="#EC8123" opacity="1.000000" stroke="none" 
	d="
M412.287659,566.163940 
	C412.611176,565.767639 412.934692,565.371399 413.663635,564.462341 
	C414.469360,563.039001 414.869690,562.128479 415.270020,561.218018 
	C415.270020,561.218018 415.139740,561.036804 415.487122,561.013916 
	C417.222626,558.658142 418.610748,556.325134 419.998901,553.992188 
	C420.275452,553.687012 420.551971,553.381836 421.042603,552.826904 
	C421.256714,552.577148 421.126892,552.279785 421.126892,552.279785 
	C421.515717,551.672974 421.904572,551.066162 422.646973,549.926575 
	C429.983917,537.258789 436.967316,525.123718 443.950684,512.988708 
	C443.950684,512.988708 444.200378,512.794250 444.457397,512.476074 
	C445.002106,511.430328 445.289825,510.702759 445.577515,509.975189 
	C445.764740,509.647949 445.951935,509.320709 446.384033,508.540894 
	C446.736145,507.725525 446.843384,507.362732 446.950623,506.999939 
	C446.950623,506.999939 447.193115,506.762970 447.459778,506.448639 
	C448.071991,505.415680 448.417511,504.697052 448.763000,503.978394 
	C448.763000,503.978394 449.035675,503.594604 449.325104,503.161926 
	C454.053619,493.482300 458.492706,484.235382 462.931763,474.988434 
	C462.931763,474.988434 463.174408,474.736115 463.467224,474.386078 
	C465.018768,471.014832 466.277435,467.993622 467.536133,464.972412 
	C467.741058,464.641144 467.945984,464.309875 468.446075,463.470276 
	C469.482086,460.973328 470.222931,458.984650 470.963745,456.995972 
	C471.237183,456.775085 471.386993,456.489349 471.652496,455.702332 
	C472.983795,452.497467 474.075806,449.729034 475.167816,446.960571 
	C475.167816,446.960571 475.307037,446.781342 475.556213,446.465759 
	C476.942322,443.109436 478.079254,440.068726 479.314270,436.934326 
	C479.412384,436.840607 479.402191,436.569489 479.667328,436.330017 
	C481.397217,432.240417 483.029114,428.444183 484.291565,424.528839 
	C486.812012,416.711884 489.129791,408.829559 491.531311,400.974213 
	C491.644714,400.765259 491.758118,400.556335 492.037079,399.999725 
	C492.202606,399.652069 492.301483,399.420593 492.301483,399.420593 
	C492.301483,399.420593 492.065857,399.331696 492.065857,399.331696 
	C492.325592,398.829407 492.585327,398.327118 493.065552,397.147522 
	C493.494019,395.651184 493.701996,394.832184 493.910004,394.013153 
	C493.910004,394.013153 494.030548,393.962006 494.205994,393.754822 
	C494.415710,393.086060 494.449982,392.624481 494.484253,392.162872 
	C494.644196,391.688629 494.804138,391.214386 495.188660,390.092041 
	C496.413055,385.288086 497.412933,381.132294 498.412781,376.976471 
	C498.581848,376.547852 498.750946,376.119263 499.045288,375.130188 
	C499.162354,374.399780 499.154175,374.229797 499.145935,374.059784 
	C499.438110,373.258148 499.730286,372.456512 500.234741,371.048462 
	C501.207794,366.284851 501.968628,362.127686 502.729431,357.970551 
	C502.815796,357.798950 502.902161,357.627380 503.133545,357.082092 
	C503.315857,356.596710 503.404907,356.471527 503.379913,356.376251 
	C503.323364,356.160492 503.210510,355.959534 503.120575,355.752533 
	C503.349091,355.536072 503.447937,355.271179 503.558777,354.532532 
	C503.871613,353.069244 504.042755,352.031342 504.213867,350.993408 
	C504.476379,349.933014 504.738892,348.872620 505.169922,347.146423 
	C505.333618,345.645233 505.328827,344.809906 505.324036,343.974548 
	C505.539734,343.233185 505.755463,342.491821 506.110748,341.157104 
	C506.216827,340.038239 506.183350,339.512726 506.149872,338.987183 
	C506.434387,337.601776 506.718933,336.216370 507.177490,334.079102 
	C508.111969,326.210480 508.872375,319.093781 509.632812,311.977051 
	C509.752380,310.907654 509.871948,309.838257 510.082031,307.992279 
	C510.414185,300.414886 510.875732,293.612732 510.834595,286.813629 
	C510.794708,280.215637 510.238800,273.620758 509.909485,267.024506 
	C509.940063,266.259216 509.970673,265.493958 509.968384,264.111816 
	C509.868561,263.337830 509.801636,263.180725 509.734741,263.023651 
	C509.738647,262.255371 509.742584,261.487061 509.705505,259.970886 
	C508.678253,253.141739 507.691986,247.060440 506.705750,240.979156 
	C506.704651,240.526093 506.703613,240.073013 506.648010,238.943481 
	C505.328888,233.197922 504.064270,228.128845 502.799652,223.059753 
	C502.759552,222.590363 502.719452,222.120956 502.523041,221.003296 
	C501.205963,216.914383 500.045166,213.473770 498.884369,210.033142 
	C498.770477,209.482315 498.656586,208.931473 498.418213,207.974152 
	C498.267944,207.345657 498.146240,207.262161 497.928619,207.317154 
	C497.928619,207.317154 497.995422,207.127106 497.916870,206.788330 
	C497.610046,206.145142 497.381775,205.840698 497.153503,205.536270 
	C491.809753,188.487427 482.894073,173.353836 471.960846,159.389908 
	C450.988464,132.604050 423.453888,115.321548 391.065063,104.013611 
	C388.050385,102.973869 385.524536,102.404686 382.998657,101.835510 
	C382.592468,101.741577 382.186249,101.647652 381.435577,101.237259 
	C380.724548,100.931747 380.358002,100.942711 379.991455,100.953682 
	C379.550354,100.862030 379.109222,100.770378 378.201508,100.405403 
	C377.468262,99.990135 377.193604,99.972473 376.910889,100.079102 
	C375.899384,99.926003 374.887878,99.772896 373.430847,99.251205 
	C372.334869,98.864845 371.684448,98.847076 371.034027,98.829315 
	C370.311737,98.711258 369.589417,98.593208 368.339722,98.087097 
	C367.054657,97.663055 366.297028,97.627068 365.539398,97.591080 
	C364.906281,97.492729 364.273163,97.394386 363.098389,96.932739 
	C361.590363,96.507133 360.623993,96.444847 359.657654,96.382553 
	C359.308624,96.338669 358.959625,96.294785 358.099670,96.079933 
	C357.406586,95.929115 357.224457,95.949257 357.042328,95.969406 
	C356.282379,95.897865 355.522400,95.826317 354.148743,95.441795 
	C351.741089,94.176003 349.947083,93.223175 348.153107,92.270340 
	C361.643829,92.224258 375.134583,92.139221 388.625305,92.138512 
	C467.082458,92.134377 545.539612,92.150063 624.565857,92.354080 
	C625.447754,92.441551 625.760620,92.333977 626.073425,92.226395 
	C626.529419,92.190010 626.985413,92.153641 627.782715,92.075066 
	C628.123962,92.032860 628.059143,92.043724 628.044067,92.329758 
	C628.643372,93.116982 629.257812,93.618187 630.018677,94.443733 
	C634.602600,105.535515 639.392883,116.173256 643.407898,127.095963 
	C653.424072,154.344772 658.772461,182.653946 659.792847,211.578247 
	C661.303894,254.408920 652.877563,295.586456 637.628845,335.574127 
	C621.960632,376.662292 599.784180,414.066406 574.028992,449.417419 
	C543.663269,491.096741 508.758972,528.803467 471.359070,564.235352 
	C461.228271,573.833069 451.058960,583.390137 440.621674,593.133545 
	C407.570129,619.892395 374.838654,646.526245 342.008850,673.038391 
	C335.552124,678.252625 328.749603,683.043335 322.031525,687.926147 
	C320.287506,689.193848 317.871765,690.996582 318.349701,686.401123 
	C318.349701,686.401123 318.350403,686.168457 318.607056,686.236755 
	C319.203461,685.864502 319.543243,685.423950 319.882996,684.983398 
	C320.288239,684.681946 320.693481,684.380493 321.462402,683.664429 
	C322.926666,681.873840 324.027222,680.497986 325.127808,679.122070 
	C325.127808,679.122070 325.034698,679.042053 325.393707,678.973022 
	C331.481110,672.430725 337.418579,666.128662 342.890991,659.445801 
	C352.145721,648.144104 361.106415,636.601624 370.190735,625.160400 
	C370.190735,625.160400 370.057068,625.003906 370.423767,624.989380 
	C373.495270,621.310242 376.200012,617.645569 378.904785,613.980896 
	C378.904785,613.980896 379.166229,613.803284 379.481659,613.476685 
	C383.285889,608.175720 386.774719,603.201477 390.263519,598.227173 
	C390.263519,598.227173 390.126617,597.996094 390.464081,598.025391 
	C391.138824,597.363647 391.476105,596.672485 391.813385,595.981384 
	C392.201569,595.594482 392.589722,595.207581 393.364105,594.431641 
	C394.238556,593.081787 394.726776,592.120911 395.215027,591.159973 
	C395.214996,591.159973 395.139038,591.086121 395.393677,591.035156 
	C395.785400,590.650696 395.922455,590.317322 396.059509,589.983948 
	C396.059540,589.983948 396.301025,589.839722 396.613800,589.544434 
	C399.249207,585.828979 401.571808,582.408813 403.894409,578.988647 
	C403.894409,578.988647 403.995331,578.981262 404.294250,578.808472 
	C406.969910,574.740845 409.346680,570.846008 411.723419,566.951111 
	C411.723419,566.951111 411.969391,566.865967 412.124176,566.756042 
	C412.278961,566.646118 412.450226,566.408203 412.450226,566.408203 
	C412.450226,566.408203 412.287689,566.163940 412.287659,566.163940 
z"/>
<path fill="#5A595E" opacity="1.000000" stroke="none" 
	d="
M412.311768,630.759460 
	C419.144257,623.896667 427.711243,623.148315 436.891266,622.603638 
	C467.059021,620.813904 496.644562,615.394104 525.086670,604.969116 
	C538.010376,600.232117 550.502380,594.317322 563.696289,589.076416 
	C564.202393,589.216003 564.494446,589.495911 564.494446,589.495911 
	C547.641296,618.569885 526.100952,643.712402 500.508667,665.399963 
	C463.141113,697.066162 420.490814,718.272583 372.720520,728.969055 
	C339.962311,736.304138 306.820068,737.556885 271.944763,733.959900 
	C284.912659,724.792480 296.841766,716.359314 309.277710,707.563965 
	C310.614471,706.507385 311.444397,705.813049 312.274353,705.118713 
	C313.003632,704.717102 313.732910,704.315491 314.939453,703.566528 
	C335.837952,688.380554 356.374176,673.696838 376.637146,658.645203 
	C388.749878,649.647705 400.434631,640.074097 412.311768,630.759460 
z"/>
<path fill="#F9F7F0" opacity="1.000000" stroke="none" 
	d="
M412.162781,630.409668 
	C400.434631,640.074097 388.749878,649.647705 376.637146,658.645203 
	C356.374176,673.696838 335.837952,688.380554 315.114349,703.299561 
	C313.188080,702.075195 311.404358,700.920959 309.989288,699.419434 
	C308.785065,698.141602 307.190979,696.418823 307.270325,694.975342 
	C307.347565,693.568909 309.311340,692.251465 310.484192,690.928101 
	C310.888214,690.472229 311.404755,690.116089 311.934937,689.357178 
	C312.000000,689.000000 311.998779,689.002258 311.998779,689.002258 
	C312.703186,687.952820 313.407593,686.903320 314.528046,685.234009 
	C315.033081,685.376892 316.320068,685.740906 317.978394,686.253052 
	C317.871765,690.996582 320.287506,689.193848 322.031525,687.926147 
	C328.749603,683.043335 335.552124,678.252625 342.008850,673.038391 
	C374.838654,646.526245 407.570129,619.892395 440.979553,593.143005 
	C442.741760,592.646484 443.860382,592.308105 444.979065,591.969727 
	C443.039368,594.506409 441.491119,598.645142 439.075867,599.235291 
	C434.500580,600.353088 433.276855,604.805725 429.471558,606.505249 
	C426.374023,607.888733 425.367004,612.484863 421.155640,612.924255 
	C420.533569,612.989197 419.624207,613.981628 419.515381,614.653137 
	C419.020538,617.706055 418.618805,620.597839 414.276672,619.616638 
	C414.023956,619.559509 413.543335,620.943359 413.025146,621.529663 
	C412.199219,622.464050 411.252533,623.291748 410.356903,624.164490 
	C409.771149,624.150146 409.185425,624.135803 408.599701,624.121521 
	C409.737732,626.100952 410.875793,628.080383 412.162781,630.409668 
z"/>
<path fill="#FDECC0" opacity="1.000000" stroke="none" 
	d="
M445.132324,591.674805 
	C443.860382,592.308105 442.741760,592.646484 441.265259,592.975342 
	C451.058960,583.390137 461.228271,573.833069 471.359070,564.235352 
	C508.758972,528.803467 543.663269,491.096741 574.028992,449.417419 
	C599.784180,414.066406 621.960632,376.662292 637.628845,335.574127 
	C652.877563,295.586456 661.303894,254.408920 659.792847,211.578247 
	C658.772461,182.653946 653.424072,154.344772 643.407898,127.095963 
	C639.392883,116.173256 634.602600,105.535515 630.049072,94.125603 
	C629.963257,93.059776 629.993469,92.636429 630.023682,92.213081 
	C630.218933,92.179031 630.414124,92.144974 630.953918,92.274376 
	C631.447083,92.575462 631.612183,92.689240 631.793762,92.779160 
	C637.639709,107.799339 643.718872,122.734802 649.218079,137.880875 
	C651.455750,144.043839 652.668030,150.618378 653.933289,157.086548 
	C656.268982,169.026321 659.213318,180.949265 660.223999,193.019882 
	C661.464600,207.836243 661.262268,222.799286 661.128113,237.693909 
	C661.061279,245.109528 659.562805,252.500671 659.049988,259.926239 
	C657.964966,275.637787 654.447144,290.774719 649.375793,305.656616 
	C645.544739,316.898682 642.873962,328.556274 638.683167,339.649841 
	C634.491333,350.746246 629.310486,361.497833 624.087830,372.167938 
	C618.959229,382.645874 613.504333,392.987518 607.683716,403.095917 
	C602.977722,411.268799 597.497009,418.994446 592.394104,426.940399 
	C588.437317,433.101807 584.827881,439.510925 580.533752,445.424927 
	C574.748779,453.392151 568.537354,461.056305 562.356201,468.727448 
	C555.823669,476.834686 549.115356,484.800385 542.475952,492.821381 
	C540.398865,495.330658 538.296265,497.818726 535.758545,500.795959 
	C532.257141,505.012634 529.454285,508.994476 526.103149,512.443604 
	C513.525024,525.389526 500.821747,538.215332 488.059143,550.979858 
	C479.611084,559.429260 470.975464,567.690918 462.438080,576.051270 
	C460.337006,578.108765 458.273499,580.205566 456.226349,582.316895 
	C454.428619,584.170959 452.677979,586.070679 450.906494,587.950134 
	C449.032837,589.093384 447.159210,590.236633 445.132324,591.674805 
z"/>
<path fill="#F9F7F0" opacity="1.000000" stroke="none" 
	d="
M369.814026,625.134766 
	C361.106415,636.601624 352.145721,648.144104 342.890991,659.445801 
	C337.418579,666.128662 331.481110,672.430725 325.437225,679.009155 
	C324.739929,673.105774 320.626556,674.520630 316.601624,675.019897 
	C331.581421,657.371277 346.933624,639.721558 362.600464,621.940063 
	C363.283691,626.476074 366.394775,625.724976 369.814026,625.134766 
z"/>
<path fill="#FCFDFA" opacity="1.000000" stroke="none" 
	d="
M451.304077,587.973389 
	C452.677979,586.070679 454.428619,584.170959 456.226349,582.316895 
	C458.273499,580.205566 460.337006,578.108765 462.438080,576.051270 
	C470.975464,567.690918 479.611084,559.429260 488.059143,550.979858 
	C500.821747,538.215332 513.525024,525.389526 526.103149,512.443604 
	C529.454285,508.994476 532.257141,505.012634 535.601929,501.109558 
	C537.977173,507.628601 537.398926,508.887451 531.931030,511.274689 
	C530.747925,511.791229 529.173645,513.422302 529.241150,514.443359 
	C529.526794,518.765991 527.339905,520.364014 523.041321,520.382019 
	C523.767883,521.971436 524.286682,523.106506 525.118225,524.925598 
	C522.831726,525.504578 520.874207,526.000244 518.423340,526.620850 
	C518.183838,528.330322 517.898743,530.365479 517.530884,532.991455 
	C516.015198,531.969971 514.912292,531.226685 513.319031,530.152893 
	C513.605408,534.950012 510.870758,536.408630 507.089722,537.097656 
	C506.060028,537.285339 504.343689,538.883972 504.481812,539.475891 
	C505.526581,543.953064 502.559784,544.838928 498.640808,545.644287 
	C499.875031,547.377625 500.825806,548.712830 501.724030,549.974304 
	C500.316040,551.755127 499.240204,553.662109 497.641022,554.884216 
	C496.948059,555.413818 495.161377,554.592163 493.899414,554.273682 
	C492.729156,553.978333 491.530365,553.136353 490.471588,553.310303 
	C489.854095,553.411926 489.173798,555.000183 489.064026,555.980286 
	C488.697540,559.251953 487.761993,561.257629 483.743225,560.551819 
	C481.204865,560.106079 479.660004,565.546753 481.209686,569.156921 
	C481.455170,569.728821 481.729889,570.288086 481.974304,570.816895 
	C477.836151,573.578613 477.618500,573.456116 475.956268,567.602966 
	C473.763336,571.530334 471.570404,575.457703 469.236572,579.637451 
	C467.875549,579.124268 466.428864,578.578857 465.200287,578.115662 
	C464.269775,581.510559 463.405212,584.664673 462.336273,588.564514 
	C460.494141,587.295227 459.242188,586.432556 457.588440,585.293091 
	C457.273560,589.945007 454.385803,588.704834 451.304077,587.973389 
z"/>
<path fill="#F9F7F0" opacity="1.000000" stroke="none" 
	d="
M491.213287,401.088776 
	C489.129791,408.829559 486.812012,416.711884 484.291565,424.528839 
	C483.029114,428.444183 481.397217,432.240417 479.490112,436.047058 
	C478.529144,435.938629 478.010498,435.873657 477.491882,435.808685 
	C478.066650,436.215149 478.641418,436.621582 479.216187,437.028015 
	C478.079254,440.068726 476.942322,443.109436 475.507629,446.363220 
	C475.158691,443.835663 474.841431,441.066071 475.135895,438.363098 
	C475.398285,435.954346 475.678558,432.145874 477.094604,431.512634 
	C482.557922,429.069611 480.199585,423.834198 482.109436,420.322937 
	C484.002045,416.843445 483.638947,412.574677 486.990967,409.488312 
	C489.071411,407.572723 489.645203,404.020782 491.213287,401.088776 
z"/>
<path fill="#F9F7F0" opacity="1.000000" stroke="none" 
	d="
M443.588379,513.027771 
	C436.967316,525.123718 429.983917,537.258789 422.695862,549.565125 
	C422.502045,548.472351 422.313141,547.083130 422.778931,545.967163 
	C424.290009,542.346985 426.156403,538.873230 427.616699,535.235046 
	C427.971985,534.349854 427.295929,533.050659 427.080627,531.868042 
	C435.966309,531.618896 435.341614,523.212769 438.986908,518.541138 
	C440.406708,516.721619 441.813416,514.891907 443.588379,513.027771 
z"/>
<path fill="#F9F7F0" opacity="1.000000" stroke="none" 
	d="
M462.604919,475.041260 
	C458.492706,484.235382 454.053619,493.482300 449.334534,502.926727 
	C448.574097,497.478271 451.391693,493.118286 454.331665,488.174347 
	C453.503815,487.229584 452.198578,485.740021 450.893372,484.250488 
	C451.095001,483.897247 451.296661,483.544006 451.498291,483.190765 
	C453.174286,483.656128 454.850281,484.121490 457.264252,484.791779 
	C457.264252,481.983093 457.264252,479.382874 457.264252,478.133209 
	C459.569885,476.735657 460.923981,475.914856 462.604919,475.041260 
z"/>
<path fill="#F9F7F0" opacity="1.000000" stroke="none" 
	d="
M509.628113,267.327728 
	C510.238800,273.620758 510.794708,280.215637 510.834595,286.813629 
	C510.875732,293.612732 510.414185,300.414886 510.008118,307.593079 
	C509.561157,306.894104 509.029297,305.816589 509.034241,304.741547 
	C509.091309,292.371124 509.229858,280.001099 509.628113,267.327728 
z"/>
<path fill="#F9F7F0" opacity="1.000000" stroke="none" 
	d="
M389.836853,598.154907 
	C386.774719,603.201477 383.285889,608.175720 379.488586,613.318726 
	C378.336365,607.612183 382.463684,603.616943 384.905365,599.052551 
	C385.373932,598.176636 387.856689,598.378174 389.836853,598.154907 
z"/>
<path fill="#E6A474" opacity="1.000000" stroke="none" 
	d="
M347.688171,92.135727 
	C349.947083,93.223175 351.741089,94.176003 353.777832,95.350517 
	C343.526154,94.588402 333.031708,93.604599 322.537292,92.620789 
	C322.537140,92.414230 322.537018,92.207672 322.536865,92.001114 
	C330.765656,92.001114 338.994476,92.001114 347.688171,92.135727 
z"/>
<path fill="#F9F7F0" opacity="1.000000" stroke="none" 
	d="
M403.521240,578.977722 
	C401.571808,582.408813 399.249207,585.828979 396.619476,589.403870 
	C395.333069,587.512573 394.353790,585.466492 393.028442,582.697388 
	C395.696259,582.697388 397.054382,582.697388 398.736664,582.697388 
	C398.646942,581.068054 398.572571,579.717041 398.480560,578.046326 
	C400.313843,578.407898 401.730957,578.687317 403.521240,578.977722 
z"/>
<path fill="#F9F7F0" opacity="1.000000" stroke="none" 
	d="
M411.389771,567.008606 
	C409.346680,570.846008 406.969910,574.740845 404.288147,578.758301 
	C403.828705,577.928955 403.768494,576.949707 403.501740,576.030457 
	C402.762115,573.481873 402.311310,571.461060 406.029968,570.680298 
	C407.876862,570.292603 409.391266,568.321106 411.389771,567.008606 
z"/>
<path fill="#F9F7F0" opacity="1.000000" stroke="none" 
	d="
M502.548462,223.279648 
	C504.064270,228.128845 505.328888,233.197922 506.479889,238.644409 
	C504.312134,235.629227 501.895630,232.386261 500.399536,228.763245 
	C499.872711,227.487457 501.599518,225.281052 502.548462,223.279648 
z"/>
<path fill="#F9F7F0" opacity="1.000000" stroke="none" 
	d="
M509.279144,312.103149 
	C508.872375,319.093781 508.111969,326.210480 507.129456,333.651337 
	C506.937134,330.836029 506.739716,327.673737 507.052765,324.562805 
	C507.468567,320.430634 508.282562,316.338531 509.279144,312.103149 
z"/>
<path fill="#F9F7F0" opacity="1.000000" stroke="none" 
	d="
M506.372070,241.069672 
	C507.691986,247.060440 508.678253,253.141739 509.538269,259.621155 
	C508.287506,253.732941 507.162933,247.446579 506.372070,241.069672 
z"/>
<path fill="#F9F7F0" opacity="1.000000" stroke="none" 
	d="
M378.537476,613.988159 
	C376.200012,617.645569 373.495270,621.310242 370.476257,625.077881 
	C371.545929,620.532104 373.073914,615.986450 378.537476,613.988159 
z"/>
<path fill="#F9F7F0" opacity="1.000000" stroke="none" 
	d="
M502.341370,357.995544 
	C501.968628,362.127686 501.207794,366.284851 500.200134,370.720612 
	C498.564362,368.599030 499.891235,359.988434 502.341370,357.995544 
z"/>
<path fill="#F9F7F0" opacity="1.000000" stroke="none" 
	d="
M498.630951,210.273209 
	C500.045166,213.473770 501.205963,216.914383 502.317535,220.710541 
	C498.869385,221.098587 497.459015,219.765015 498.355316,216.155853 
	C498.795715,214.382538 498.396698,212.400726 498.630951,210.273209 
z"/>
<path fill="#F9F7F0" opacity="1.000000" stroke="none" 
	d="
M498.110657,377.095032 
	C497.412933,381.132294 496.413055,385.288086 495.173950,389.714417 
	C493.755768,385.246979 495.438904,381.153046 498.110657,377.095032 
z"/>
<path fill="#F9F7F0" opacity="1.000000" stroke="none" 
	d="
M467.224274,465.067627 
	C466.277435,467.993622 465.018768,471.014832 463.455750,474.211426 
	C462.070953,470.360413 464.870392,467.916046 467.224274,465.067627 
z"/>
<path fill="#F9F7F0" opacity="1.000000" stroke="none" 
	d="
M363.471497,619.989807 
	C362.900238,619.957153 362.707977,619.938477 362.249512,619.805237 
	C363.046326,618.569641 364.109283,617.448547 365.172272,616.327515 
	C365.725952,617.021606 366.279602,617.715637 366.833252,618.409729 
	C365.839020,618.941040 364.844757,619.472412 363.471497,619.989807 
z"/>
<path fill="#F9F7F0" opacity="1.000000" stroke="none" 
	d="
M474.854431,447.148346 
	C474.075806,449.729034 472.983795,452.497467 471.585815,455.463684 
	C472.366913,452.886322 473.453979,450.111237 474.854431,447.148346 
z"/>
<path fill="#F9F7F0" opacity="1.000000" stroke="none" 
	d="
M419.619965,553.999695 
	C418.610748,556.325134 417.222626,558.658142 415.529419,561.117188 
	C416.563232,558.831299 417.902161,556.419250 419.619965,553.999695 
z"/>
<path fill="#FCFDFA" opacity="1.000000" stroke="none" 
	d="
M529.952026,525.207153 
	C529.666748,524.148254 529.463440,523.414734 529.260132,522.681213 
	C529.532715,522.530823 529.805237,522.380432 530.077759,522.230042 
	C531.357178,523.715637 532.636597,525.201233 533.915955,526.686768 
	C533.668823,527.043213 533.421631,527.399597 533.174438,527.755981 
	C532.127625,527.014832 531.080872,526.273682 529.952026,525.207153 
z"/>
<path fill="#F9F7F0" opacity="1.000000" stroke="none" 
	d="
M470.651367,457.132263 
	C470.222931,458.984650 469.482086,460.973328 468.449554,463.172119 
	C467.143799,460.723206 466.878632,458.331299 470.651367,457.132263 
z"/>
<path fill="#E6A474" opacity="1.000000" stroke="none" 
	d="
M383.231934,102.123077 
	C385.524536,102.404686 388.050385,102.973869 390.753906,103.846558 
	C388.442810,103.570267 385.954010,102.990456 383.231934,102.123077 
z"/>
<path fill="#F9F7F0" opacity="1.000000" stroke="none" 
	d="
M324.723785,679.085815 
	C324.027222,680.497986 322.926666,681.873840 321.521118,683.407288 
	C320.824066,681.079163 321.148346,679.085815 324.723785,679.085815 
z"/>
<path fill="#F9F7F0" opacity="1.000000" stroke="none" 
	d="
M424.862000,617.358582 
	C424.466827,618.307922 423.998871,618.928833 423.530914,619.549744 
	C423.139954,618.938232 422.748962,618.326721 422.357971,617.715149 
	C423.168427,617.486816 423.978821,617.258484 424.862000,617.358582 
z"/>
<path fill="#F9F7F0" opacity="1.000000" stroke="none" 
	d="
M414.875092,561.156433 
	C414.869690,562.128479 414.469360,563.039001 413.805450,564.103149 
	C413.137512,563.476135 412.733154,562.695496 412.328827,561.914917 
	C413.045929,561.641541 413.763062,561.368164 414.875092,561.156433 
z"/>
<path fill="#F9F7F0" opacity="1.000000" stroke="none" 
	d="
M313.895935,677.929321 
	C314.113953,677.135742 314.654816,676.474915 315.484619,675.668701 
	C316.001099,676.441528 316.228638,677.359680 316.456146,678.277893 
	C315.710358,678.205933 314.964569,678.134033 313.895935,677.929321 
z"/>
<path fill="#F9F7F0" opacity="1.000000" stroke="none" 
	d="
M493.596771,394.048645 
	C493.701996,394.832184 493.494019,395.651184 493.081818,396.719727 
	C493.012909,396.007568 493.148224,395.045837 493.596771,394.048645 
z"/>
<path fill="#F9F7F0" opacity="1.000000" stroke="none" 
	d="
M505.065033,344.076782 
	C505.328827,344.809906 505.333618,345.645233 505.132904,346.732452 
	C504.886932,346.049225 504.846466,345.114136 505.065033,344.076782 
z"/>
<path fill="#F9F7F0" opacity="1.000000" stroke="none" 
	d="
M394.832245,591.159180 
	C394.726776,592.120911 394.238556,593.081787 393.435242,594.163940 
	C393.563263,593.242981 394.006378,592.200684 394.832245,591.159180 
z"/>
<path fill="#F9F7F0" opacity="1.000000" stroke="none" 
	d="
M301.033844,692.005859 
	C301.000763,691.148621 301.126556,690.556396 301.535400,689.807556 
	C301.609863,690.524231 301.401306,691.397644 301.033844,692.005859 
z"/>
<path fill="#F9F7F0" opacity="1.000000" stroke="none" 
	d="
M311.874207,705.086487 
	C311.444397,705.813049 310.614471,706.507385 309.471771,707.301819 
	C309.930695,706.619324 310.702362,705.836792 311.874207,705.086487 
z"/>
<path fill="#E6A474" opacity="1.000000" stroke="none" 
	d="
M359.857666,96.583954 
	C360.623993,96.444847 361.590363,96.507133 362.784607,96.867401 
	C362.027527,97.038696 361.042603,96.912018 359.857666,96.583954 
z"/>
<path fill="#F9F7F0" opacity="1.000000" stroke="none" 
	d="
M503.924805,351.153748 
	C504.042755,352.031342 503.871613,353.069244 503.453979,354.340790 
	C503.350250,353.487640 503.493011,352.400879 503.924805,351.153748 
z"/>
<path fill="#F9F7F0" opacity="1.000000" stroke="none" 
	d="
M448.433594,504.053772 
	C448.417511,504.697052 448.071991,505.415680 447.444458,506.279816 
	C447.476349,505.659943 447.790253,504.894562 448.433594,504.053772 
z"/>
<path fill="#F9F7F0" opacity="1.000000" stroke="none" 
	d="
M391.493591,596.042603 
	C391.476105,596.672485 391.138824,597.363647 390.516388,598.149048 
	C390.545410,597.530212 390.859619,596.817017 391.493591,596.042603 
z"/>
<path fill="#F9F7F0" opacity="1.000000" stroke="none" 
	d="
M384.395752,593.954346 
	C384.790894,593.713257 385.184052,593.715027 385.575012,593.745239 
	C385.586029,593.746094 385.573547,594.050903 385.572021,594.213928 
	C385.179169,594.209717 384.786285,594.205444 384.395752,593.954346 
z"/>
<path fill="#E6A474" opacity="1.000000" stroke="none" 
	d="
M371.217224,99.090637 
	C371.684448,98.847076 372.334869,98.864845 373.075684,99.106720 
	C372.577484,99.337868 371.988953,99.344910 371.217224,99.090637 
z"/>
<path fill="#E6A474" opacity="1.000000" stroke="none" 
	d="
M365.739471,97.823677 
	C366.297028,97.627068 367.054657,97.663055 368.001068,97.940605 
	C367.439758,98.140205 366.689636,98.098244 365.739471,97.823677 
z"/>
<path fill="#F9F7F0" opacity="1.000000" stroke="none" 
	d="
M358.937927,619.005615 
	C358.505463,619.241150 357.985504,619.253113 357.240112,619.112732 
	C357.626587,618.901001 358.238556,618.841614 358.937927,619.005615 
z"/>
<path fill="#F9F7F0" opacity="1.000000" stroke="none" 
	d="
M505.938843,339.075439 
	C506.183350,339.512726 506.216827,340.038239 506.059448,340.767578 
	C505.821655,340.368805 505.774719,339.766266 505.938843,339.075439 
z"/>
<path fill="#F9F7F0" opacity="1.000000" stroke="none" 
	d="
M305.063171,686.866821 
	C305.214508,686.211670 305.737854,685.551880 306.564453,684.786926 
	C306.390198,685.408569 305.912689,686.135376 305.063171,686.866821 
z"/>
<path fill="#F9F7F0" opacity="1.000000" stroke="none" 
	d="
M312.000610,688.999268 
	C311.491577,688.696716 310.981934,688.395020 310.472290,688.093323 
	C310.653717,687.884277 310.835114,687.675232 311.016510,687.466125 
	C311.320465,687.788818 311.624420,688.111572 311.963562,688.718262 
	C311.998779,689.002258 312.000000,689.000000 312.000610,688.999268 
z"/>
<path fill="#F9F7F0" opacity="1.000000" stroke="none" 
	d="
M445.265503,510.070251 
	C445.289825,510.702759 445.002106,511.430328 444.446106,512.318237 
	C444.436340,511.707520 444.694916,510.936432 445.265503,510.070251 
z"/>
<path fill="#E6A474" opacity="1.000000" stroke="none" 
	d="
M631.988770,92.732574 
	C631.612183,92.689240 631.447083,92.575462 631.250488,92.295975 
	C631.555664,92.104057 631.908936,92.054001 632.511902,92.098923 
	C632.657410,92.461479 632.464783,92.625511 631.988770,92.732574 
z"/>
<path fill="#F9F7F0" opacity="1.000000" stroke="none" 
	d="
M319.575378,685.014526 
	C319.543243,685.423950 319.203461,685.864502 318.579041,686.349670 
	C318.618866,685.944702 318.943329,685.495178 319.575378,685.014526 
z"/>
<path fill="#F9F7F0" opacity="1.000000" stroke="none" 
	d="
M494.331421,392.331390 
	C494.449982,392.624481 494.415710,393.086060 494.182373,393.693787 
	C494.048401,393.393219 494.113525,392.946564 494.331421,392.331390 
z"/>
<path fill="#E6A474" opacity="1.000000" stroke="none" 
	d="
M380.144958,101.150620 
	C380.358002,100.942711 380.724548,100.931747 381.156555,101.093643 
	C381.222015,101.266502 380.776093,101.487930 380.776093,101.487930 
	C380.776093,101.487930 380.298431,101.347549 380.144958,101.150620 
z"/>
<path fill="#E6A474" opacity="1.000000" stroke="none" 
	d="
M357.119751,96.130203 
	C357.224457,95.949257 357.406586,95.929115 357.845093,96.008865 
	C357.800018,96.169502 357.498566,96.230247 357.119751,96.130203 
z"/>
<path fill="#E6A474" opacity="1.000000" stroke="none" 
	d="
M625.785400,92.124954 
	C625.760620,92.333977 625.447754,92.441551 625.028076,92.387337 
	C625.113342,92.158203 625.305420,92.090851 625.785400,92.124954 
z"/>
<path fill="#E6A474" opacity="1.000000" stroke="none" 
	d="
M377.049377,100.272095 
	C377.193604,99.972473 377.468262,99.990135 377.889404,100.273727 
	C378.043915,100.415382 377.627502,100.639626 377.627502,100.639626 
	C377.627502,100.639626 377.187866,100.465088 377.049377,100.272095 
z"/>
<path fill="#F9F7F0" opacity="1.000000" stroke="none" 
	d="
M497.158997,205.825623 
	C497.381775,205.840698 497.610046,206.145142 497.828339,206.740326 
	C497.600403,206.725708 497.382446,206.420334 497.158997,205.825623 
z"/>
<path fill="#F9F7F0" opacity="1.000000" stroke="none" 
	d="
M497.948181,207.378906 
	C498.146240,207.262161 498.267944,207.345657 498.178558,207.621613 
	C498.063385,207.675568 497.967743,207.440659 497.948181,207.378906 
z"/>
<path fill="#F9F7F0" opacity="1.000000" stroke="none" 
	d="
M395.816040,590.106506 
	C395.922455,590.317322 395.785400,590.650696 395.390259,591.088013 
	C395.279022,590.870911 395.425812,590.549988 395.816040,590.106506 
z"/>
<path fill="#F9F7F0" opacity="1.000000" stroke="none" 
	d="
M509.601532,263.121216 
	C509.801636,263.180725 509.868561,263.337830 509.862915,263.740540 
	C509.417145,263.821686 509.309814,263.565887 509.601532,263.121216 
z"/>
<path fill="#5A595E" opacity="1.000000" stroke="none" 
	d="
M564.064941,589.067627 
	C564.140381,588.714844 564.353210,588.510498 564.566040,588.306152 
	C564.647583,588.582825 564.729065,588.859558 564.652527,589.316040 
	C564.494446,589.495911 564.202393,589.216003 564.064941,589.067627 
z"/>
<path fill="#F9F7F0" opacity="1.000000" stroke="none" 
	d="
M412.221405,566.225342 
	C412.287689,566.163940 412.450226,566.408203 412.450226,566.408203 
	C412.450226,566.408203 412.278961,566.646118 412.132812,566.626221 
	C411.986664,566.606323 412.155121,566.286804 412.221405,566.225342 
z"/>
<path fill="#F9F7F0" opacity="1.000000" stroke="none" 
	d="
M503.062286,356.031464 
	C503.210510,355.959534 503.323364,356.160492 503.379913,356.376251 
	C503.404907,356.471527 503.315857,356.596710 503.127808,356.794006 
	C502.986023,356.689911 502.994995,356.500153 503.062286,356.031464 
z"/>
<path fill="#F9F7F0" opacity="1.000000" stroke="none" 
	d="
M498.957886,374.099121 
	C499.154175,374.229797 499.162354,374.399780 499.026550,374.780579 
	C498.752289,374.793091 498.606659,374.601929 498.507080,374.389221 
	C498.490723,374.354309 498.677094,374.224457 498.957886,374.099121 
z"/>
<path fill="#F9F7F0" opacity="1.000000" stroke="none" 
	d="
M421.104858,552.311523 
	C421.126892,552.279785 421.256714,552.577148 421.142273,552.531860 
	C421.027802,552.486572 421.082794,552.343323 421.104858,552.311523 
z"/>
<path fill="#F9F7F0" opacity="1.000000" stroke="none" 
	d="
M492.045105,399.381927 
	C492.065857,399.331696 492.301483,399.420593 492.301483,399.420593 
	C492.301483,399.420593 492.202606,399.652069 492.075195,399.645142 
	C491.947754,399.638184 492.024384,399.432159 492.045105,399.381927 
z"/>
<path fill="#F9F7F0" opacity="1.000000" stroke="none" 
	d="
M446.711792,507.164917 
	C446.843384,507.362732 446.736145,507.725525 446.385620,508.253845 
	C446.252533,508.056183 446.362762,507.693054 446.711792,507.164917 
z"/>
<path fill="#E6A474" opacity="1.000000" stroke="none" 
	d="
M629.700745,92.099594 
	C629.993469,92.636429 629.963257,93.059776 629.902588,93.801254 
	C629.257812,93.618187 628.643372,93.116982 628.038208,92.297485 
	C628.490906,91.981491 628.934387,91.983803 629.700745,92.099594 
z"/>
<path fill="#FFFFFE" opacity="1.000000" stroke="none" 
	d="
M479.314270,436.934326 
	C478.641418,436.621582 478.066650,436.215149 477.491882,435.808685 
	C478.010498,435.873657 478.529144,435.938629 479.224976,436.286560 
	C479.402191,436.569489 479.412384,436.840607 479.314270,436.934326 
z"/>
</svg>